<svg width="30" height="46" viewBox="0 0 30 46" fill="none" xmlns="http://www.w3.org/2000/svg">
<path fill-rule="evenodd" clip-rule="evenodd" d="M15 30C6.71573 30 -8.11657e-07 36.7157 -8.74228e-08 45L-4.02145e-06 2.62268e-06L0.0328005 2.61982e-06C0.547387 7.81803 7.05176 14 15 14C22.9482 14 29.4526 7.81803 29.9672 2.86786e-09L30 0L30 45C30 36.7157 23.2843 30 15 30ZM29.9672 46C29.989 45.6695 30 45.336 30 45L30 46L29.9672 46ZM0.0328045 46L0 46L-8.74228e-08 45C-5.80462e-08 45.336 0.0110492 45.6695 0.0328045 46Z" fill="#17181B"/>
</svg>
