<svg width="46" height="30" viewBox="0 0 46 30" fill="none" xmlns="http://www.w3.org/2000/svg">
<path fill-rule="evenodd" clip-rule="evenodd" d="M16 15C16 6.71573 9.28427 1.10714e-07 1 1.19249e-08L46 5.48545e-07L46 0.032805C38.182 0.54739 32 7.05176 32 15C32 22.9482 38.182 29.4526 46 29.9672L46 30L1 30C9.28427 30 16 23.2843 16 15ZM3.9119e-10 29.9672C0.330524 29.989 0.663971 30 1 30L0 30L3.9119e-10 29.9672ZM3.57355e-07 0.0328045L3.57746e-07 0L1 1.19249e-08C0.663972 7.91778e-09 0.330524 0.0110493 3.57355e-07 0.0328045Z" fill="#17181B"/>
</svg>
