<svg width="1600" height="700" viewBox="0 0 1600 700" fill="none" xmlns="http://www.w3.org/2000/svg">
<g opacity="0.02" filter="url(#filter0_d_1025_278)">
<rect x="1577.27" y="176.475" width="2.9048" height="84.8994" transform="rotate(180 1577.27 176.475)" fill="white"/>
<rect x="1583.08" y="140.09" width="14.524" height="30.3212" transform="rotate(180 1583.08 140.09)" fill="white"/>
<rect x="1559.85" y="176.475" width="2.9048" height="103.092" transform="rotate(180 1559.85 176.475)" fill="white"/>
<rect x="1565.66" y="173.443" width="14.524" height="36.3854" transform="rotate(180 1565.66 173.443)" fill="white"/>
<rect x="1524.99" y="179.508" width="2.9048" height="66.7066" transform="rotate(180 1524.99 179.508)" fill="white"/>
<rect x="1530.8" y="173.443" width="14.524" height="27.2891" transform="rotate(180 1530.8 173.443)" fill="white"/>
<rect x="1507.56" y="221.958" width="2.9048" height="72.7709" transform="rotate(180 1507.56 221.958)" fill="white"/>
<rect x="1513.37" y="206.797" width="14.524" height="36.3854" transform="rotate(180 1513.37 206.797)" fill="white"/>
<rect x="1490.13" y="221.958" width="2.9048" height="33.3533" transform="rotate(180 1490.13 221.958)" fill="white"/>
<rect x="1495.94" y="212.861" width="14.524" height="9.09636" transform="rotate(180 1495.94 212.861)" fill="white"/>
<rect x="1455.27" y="267.439" width="2.9048" height="84.8994" transform="rotate(180 1455.27 267.439)" fill="white"/>
<rect x="1461.08" y="234.085" width="14.524" height="39.4176" transform="rotate(180 1461.08 234.085)" fill="white"/>
<rect x="1437.84" y="243.182" width="2.9048" height="36.3854" transform="rotate(180 1437.84 243.182)" fill="white"/>
<rect x="1443.65" y="237.117" width="14.524" height="9.09636" transform="rotate(180 1443.65 237.117)" fill="white"/>
<rect x="1368.13" y="215.893" width="2.9048" height="63.6745" transform="rotate(180 1368.13 215.893)" fill="white"/>
<rect x="1373.94" y="206.796" width="14.524" height="39.4176" transform="rotate(180 1373.94 206.796)" fill="white"/>
<rect x="1350.7" y="267.438" width="2.9048" height="54.5782" transform="rotate(180 1350.7 267.438)" fill="white"/>
<rect x="1356.51" y="252.278" width="14.524" height="48.5139" transform="rotate(180 1356.51 252.278)" fill="white"/>
<rect x="1315.84" y="288.666" width="2.9048" height="63.6745" transform="rotate(180 1315.84 288.666)" fill="white"/>
<rect x="1321.65" y="261.377" width="14.524" height="15.1606" transform="rotate(180 1321.65 261.377)" fill="white"/>
<rect x="1298.42" y="300.793" width="2.9048" height="57.6103" transform="rotate(180 1298.42 300.793)" fill="white"/>
<rect x="1304.22" y="264.407" width="14.524" height="9.09636" transform="rotate(180 1304.22 264.407)" fill="white"/>
<rect x="1228.69" y="167.381" width="2.9048" height="21.2248" transform="rotate(180 1228.69 167.381)" fill="white"/>
<rect x="1234.5" y="164.35" width="14.524" height="12.1285" transform="rotate(180 1234.5 164.35)" fill="white"/>
<rect x="1193.84" y="185.572" width="2.9048" height="66.7066" transform="rotate(180 1193.84 185.572)" fill="white"/>
<rect x="1199.65" y="182.54" width="14.524" height="27.2891" transform="rotate(180 1199.65 182.54)" fill="white"/>
<rect x="1176.41" y="234.086" width="2.9048" height="69.7388" transform="rotate(180 1176.41 234.086)" fill="white"/>
<rect x="1182.22" y="215.894" width="14.524" height="36.3854" transform="rotate(180 1182.22 215.894)" fill="white"/>
<rect x="1158.98" y="334.145" width="2.9048" height="154.638" transform="rotate(180 1158.98 334.145)" fill="white"/>
<rect x="1164.79" y="312.92" width="14.524" height="100.06" transform="rotate(180 1164.79 312.92)" fill="white"/>
<rect x="1141.55" y="449.366" width="2.9048" height="48.5139" transform="rotate(180 1141.55 449.366)" fill="white"/>
<rect x="1147.36" y="440.27" width="14.524" height="130.381" transform="rotate(180 1147.36 440.27)" fill="white"/>
<rect x="1106.7" y="458.462" width="2.9048" height="45.4818" transform="rotate(180 1106.7 458.462)" fill="white"/>
<rect x="1112.51" y="449.365" width="14.524" height="24.257" transform="rotate(180 1112.51 449.365)" fill="white"/>
<rect x="1071.84" y="449.366" width="2.9048" height="27.2891" transform="rotate(180 1071.84 449.366)" fill="white"/>
<rect x="1077.65" y="440.27" width="14.524" height="15.1606" transform="rotate(180 1077.65 440.27)" fill="white"/>
<rect x="1036.98" y="497.88" width="2.9048" height="69.7388" transform="rotate(180 1036.98 497.88)" fill="white"/>
<rect x="1042.79" y="488.784" width="14.524" height="57.6103" transform="rotate(180 1042.79 488.784)" fill="white"/>
<rect x="1019.55" y="528.202" width="2.9048" height="84.8994" transform="rotate(180 1019.55 528.202)" fill="white"/>
<rect x="1025.36" y="510.009" width="14.524" height="24.257" transform="rotate(180 1025.36 510.009)" fill="white"/>
<rect x="1002.12" y="585.811" width="2.9048" height="106.124" transform="rotate(180 1002.12 585.811)" fill="white"/>
<rect x="1007.93" y="576.715" width="14.524" height="69.7388" transform="rotate(180 1007.93 576.715)" fill="white"/>
<rect x="984.696" y="616.133" width="2.9048" height="63.6745" transform="rotate(180 984.696 616.133)" fill="white"/>
<rect x="990.505" y="576.715" width="14.524" height="9.09636" transform="rotate(180 990.505 576.715)" fill="white"/>
<rect x="967.266" y="676.775" width="2.9048" height="118.253" transform="rotate(180 967.266 676.775)" fill="white"/>
<rect x="973.076" y="637.357" width="14.524" height="63.6745" transform="rotate(180 973.076 637.357)" fill="white"/>
<rect x="932.408" y="610.068" width="2.9048" height="103.092" transform="rotate(180 932.408 610.068)" fill="white"/>
<rect x="938.218" y="588.843" width="14.524" height="36.3854" transform="rotate(180 938.218 588.843)" fill="white"/>
<rect x="897.553" y="613.101" width="2.9048" height="75.803" transform="rotate(180 897.553 613.101)" fill="white"/>
<rect x="903.362" y="576.715" width="14.524" height="9.09636" transform="rotate(180 903.362 576.715)" fill="white"/>
<rect x="880.124" y="634.326" width="2.9048" height="72.7709" transform="rotate(180 880.124 634.326)" fill="white"/>
<rect x="885.934" y="607.037" width="14.524" height="33.3533" transform="rotate(180 885.934 607.037)" fill="white"/>
<rect x="845.264" y="685.871" width="2.9048" height="151.606" transform="rotate(180 845.264 685.871)" fill="white"/>
<rect x="851.074" y="643.421" width="14.524" height="54.5782" transform="rotate(180 851.074 643.421)" fill="white"/>
<rect x="792.981" y="582.779" width="2.9048" height="63.6745" transform="rotate(180 792.981 582.779)" fill="white"/>
<rect x="798.79" y="564.587" width="14.524" height="21.2248" transform="rotate(180 798.79 564.587)" fill="white"/>
<rect x="723.267" y="528.202" width="2.9048" height="78.8351" transform="rotate(180 723.267 528.202)" fill="white"/>
<rect x="729.076" y="479.687" width="14.524" height="12.1285" transform="rotate(180 729.076 479.687)" fill="white"/>
<rect x="740.694" y="491.816" width="2.9048" height="39.4176" transform="rotate(180 740.694 491.816)" fill="white"/>
<rect x="746.503" y="470.591" width="14.524" height="9.09636" transform="rotate(180 746.503 470.591)" fill="white"/>
<rect x="705.834" y="494.849" width="2.9048" height="27.2891" transform="rotate(180 705.834 494.849)" fill="white"/>
<rect x="711.644" y="488.784" width="14.524" height="9.09636" transform="rotate(180 711.644 488.784)" fill="white"/>
<rect x="688.405" y="510.008" width="2.9048" height="33.3533" transform="rotate(180 688.405 510.008)" fill="white"/>
<rect x="694.215" y="497.879" width="14.524" height="12.1285" transform="rotate(180 694.215 497.879)" fill="white"/>
<rect x="653.55" y="488.784" width="2.9048" height="51.546" transform="rotate(180 653.55 488.784)" fill="white"/>
<rect x="659.359" y="482.72" width="14.524" height="18.1927" transform="rotate(180 659.359 482.72)" fill="white"/>
<rect x="636.119" y="516.073" width="2.9048" height="54.5782" transform="rotate(180 636.119 516.073)" fill="white"/>
<rect x="641.929" y="500.912" width="14.524" height="21.2248" transform="rotate(180 641.929 500.912)" fill="white"/>
<rect x="601.263" y="573.683" width="2.9048" height="81.8672" transform="rotate(180 601.263 573.683)" fill="white"/>
<rect x="607.072" y="567.619" width="14.524" height="72.7709" transform="rotate(180 607.072 567.619)" fill="white"/>
<rect x="583.832" y="619.165" width="2.9048" height="57.6103" transform="rotate(180 583.832 619.165)" fill="white"/>
<rect x="589.642" y="597.94" width="14.524" height="33.3533" transform="rotate(180 589.642 597.94)" fill="white"/>
<rect x="566.405" y="634.325" width="2.9048" height="57.6103" transform="rotate(180 566.405 634.325)" fill="white"/>
<rect x="572.214" y="619.165" width="14.524" height="24.257" transform="rotate(180 572.214 619.165)" fill="white"/>
<rect x="514.117" y="607.036" width="2.9048" height="57.6103" transform="rotate(180 514.117 607.036)" fill="white"/>
<rect x="519.926" y="576.715" width="14.524" height="21.2248" transform="rotate(180 519.926 576.715)" fill="white"/>
<rect x="496.692" y="594.907" width="2.9048" height="48.5139" transform="rotate(180 496.692 594.907)" fill="white"/>
<rect x="502.501" y="579.747" width="14.524" height="6.06424" transform="rotate(180 502.501 579.747)" fill="white"/>
<rect x="444.405" y="400.852" width="2.9048" height="39.4176" transform="rotate(180 444.405 400.852)" fill="white"/>
<rect x="450.214" y="382.66" width="14.524" height="12.1285" transform="rotate(180 450.214 382.66)" fill="white"/>
<rect x="409.546" y="370.531" width="2.9048" height="60.6424" transform="rotate(180 409.546 370.531)" fill="white"/>
<rect x="415.355" y="343.242" width="14.524" height="12.1285" transform="rotate(180 415.355 343.242)" fill="white"/>
<rect x="392.118" y="370.531" width="2.9048" height="30.3212" transform="rotate(180 392.118 370.531)" fill="white"/>
<rect x="397.927" y="358.402" width="14.524" height="18.1927" transform="rotate(180 397.927 358.402)" fill="white"/>
<rect x="357.259" y="367.5" width="2.9048" height="36.3854" transform="rotate(180 357.259 367.5)" fill="white"/>
<rect x="363.068" y="349.307" width="14.524" height="9.09636" transform="rotate(180 363.068 349.307)" fill="white"/>
<rect x="304.975" y="282.6" width="2.9048" height="57.6103" transform="rotate(180 304.975 282.6)" fill="white"/>
<rect x="310.784" y="246.214" width="14.524" height="9.09636" transform="rotate(180 310.784 246.214)" fill="white"/>
<rect x="287.543" y="312.92" width="2.9048" height="78.8351" transform="rotate(180 287.543 312.92)" fill="white"/>
<rect x="293.353" y="300.792" width="14.524" height="57.6103" transform="rotate(180 293.353 300.792)" fill="white"/>
<rect x="217.831" y="243.182" width="2.9048" height="97.0278" transform="rotate(180 217.831 243.182)" fill="white"/>
<rect x="223.641" y="206.796" width="14.524" height="60.6424" transform="rotate(180 223.641 206.796)" fill="white"/>
<rect x="200.401" y="249.246" width="2.9048" height="69.7388" transform="rotate(180 200.401 249.246)" fill="white"/>
<rect x="206.21" y="237.117" width="14.524" height="33.3533" transform="rotate(180 206.21 237.117)" fill="white"/>
<rect x="165.544" y="300.793" width="2.9048" height="66.7066" transform="rotate(180 165.544 300.793)" fill="white"/>
<rect x="171.354" y="255.311" width="14.524" height="27.2891" transform="rotate(180 171.354 255.311)" fill="white"/>
<rect x="95.8261" y="334.146" width="2.9048" height="248.634" transform="rotate(180 95.8261 334.146)" fill="white"/>
<rect x="101.635" y="243.182" width="14.524" height="148.574" transform="rotate(180 101.635 243.182)" fill="white"/>
<rect x="78.4013" y="285.632" width="2.9048" height="54.5782" transform="rotate(180 78.4013 285.632)" fill="white"/>
<rect x="84.2106" y="252.279" width="14.524" height="12.1285" transform="rotate(180 84.2106 252.279)" fill="white"/>
<rect x="113.258" y="109.769" width="2.9048" height="78.8351" transform="rotate(180 113.258 109.769)" fill="white"/>
<rect x="119.067" y="97.6399" width="14.524" height="39.4176" transform="rotate(180 119.067 97.6399)" fill="white"/>
<rect x="60.9702" y="325.049" width="2.9048" height="100.06" transform="rotate(180 60.9702 325.049)" fill="white"/>
<rect x="66.7796" y="309.888" width="14.524" height="60.6424" transform="rotate(180 66.7796 309.888)" fill="white"/>
<rect x="8.68286" y="315.952" width="2.9048" height="60.6424" transform="rotate(180 8.68286 315.952)" fill="white"/>
<rect x="14.4922" y="297.76" width="14.524" height="9.09636" transform="rotate(180 14.4922 297.76)" fill="white"/>
<rect x="1594.7" y="167.379" width="2.9048" height="93.9957" transform="rotate(180 1594.7 167.379)" fill="white"/>
<rect x="1600.51" y="152.219" width="14.524" height="42.4497" transform="rotate(180 1600.51 152.219)" fill="white"/>
<rect x="1542.42" y="191.636" width="2.9048" height="54.5782" transform="rotate(180 1542.42 191.636)" fill="white"/>
<rect x="1548.23" y="173.444" width="14.524" height="27.2891" transform="rotate(180 1548.23 173.444)" fill="white"/>
<rect x="1472.7" y="234.086" width="2.9048" height="54.5782" transform="rotate(180 1472.7 234.086)" fill="white"/>
<rect x="1478.51" y="212.861" width="14.524" height="21.2248" transform="rotate(180 1478.51 212.861)" fill="white"/>
<rect x="1420.41" y="246.214" width="2.9048" height="39.4176" transform="rotate(180 1420.41 246.214)" fill="white"/>
<rect x="1426.22" y="237.117" width="14.524" height="18.1927" transform="rotate(180 1426.22 237.117)" fill="white"/>
<rect x="1402.99" y="237.117" width="2.9048" height="54.5782" transform="rotate(180 1402.99 237.117)" fill="white"/>
<rect x="1408.8" y="221.957" width="14.524" height="9.09636" transform="rotate(180 1408.8 221.957)" fill="white"/>
<rect x="1385.56" y="218.924" width="2.9048" height="78.8351" transform="rotate(180 1385.56 218.924)" fill="white"/>
<rect x="1391.37" y="215.892" width="14.524" height="48.5139" transform="rotate(180 1391.37 215.892)" fill="white"/>
<rect x="1333.27" y="261.375" width="2.9048" height="27.2891" transform="rotate(180 1333.27 261.375)" fill="white"/>
<rect x="1339.08" y="252.278" width="14.524" height="6.06424" transform="rotate(180 1339.08 252.278)" fill="white"/>
<rect x="1280.99" y="273.503" width="2.9048" height="39.4176" transform="rotate(180 1280.99 273.503)" fill="white"/>
<rect x="1286.8" y="264.406" width="14.524" height="27.2891" transform="rotate(180 1286.8 264.406)" fill="white"/>
<rect x="1263.55" y="267.438" width="2.9048" height="84.8994" transform="rotate(180 1263.55 267.438)" fill="white"/>
<rect x="1269.36" y="240.15" width="14.524" height="54.5782" transform="rotate(180 1269.36 240.15)" fill="white"/>
<rect x="1246.13" y="203.765" width="2.9048" height="66.7066" transform="rotate(180 1246.13 203.765)" fill="white"/>
<rect x="1251.94" y="188.604" width="14.524" height="36.3854" transform="rotate(180 1251.94 188.604)" fill="white"/>
<rect x="1211.27" y="170.411" width="2.9048" height="54.5782" transform="rotate(180 1211.27 170.411)" fill="white"/>
<rect x="1217.08" y="164.346" width="14.524" height="9.09636" transform="rotate(180 1217.08 164.346)" fill="white"/>
<rect x="1124.13" y="458.462" width="2.9048" height="42.4497" transform="rotate(180 1124.13 458.462)" fill="white"/>
<rect x="1129.94" y="440.27" width="14.524" height="15.1606" transform="rotate(180 1129.94 440.27)" fill="white"/>
<rect x="1089.27" y="455.43" width="2.9048" height="63.6745" transform="rotate(180 1089.27 455.43)" fill="white"/>
<rect x="1095.08" y="449.365" width="14.524" height="27.2891" transform="rotate(180 1095.08 449.365)" fill="white"/>
<rect x="1054.41" y="476.655" width="2.9048" height="66.7066" transform="rotate(180 1054.41 476.655)" fill="white"/>
<rect x="1060.22" y="440.27" width="14.524" height="12.1285" transform="rotate(180 1060.22 440.27)" fill="white"/>
<rect x="949.839" y="640.389" width="2.9048" height="121.285" transform="rotate(180 949.839 640.389)" fill="white"/>
<rect x="955.648" y="637.357" width="14.524" height="87.9315" transform="rotate(180 955.648 637.357)" fill="white"/>
<rect x="914.981" y="607.036" width="2.9048" height="75.803" transform="rotate(180 914.981 607.036)" fill="white"/>
<rect x="920.79" y="588.844" width="14.524" height="18.1927" transform="rotate(180 920.79 588.844)" fill="white"/>
<rect x="862.691" y="610.066" width="2.9048" height="51.546" transform="rotate(180 862.691 610.066)" fill="white"/>
<rect x="868.5" y="607.034" width="14.524" height="18.1927" transform="rotate(180 868.5 607.034)" fill="white"/>
<rect x="827.836" y="698" width="2.9048" height="151.606" transform="rotate(180 827.836 698)" fill="white"/>
<rect x="833.646" y="643.422" width="14.524" height="90.9636" transform="rotate(180 833.646 643.422)" fill="white"/>
<rect x="810.409" y="570.651" width="2.9048" height="69.7388" transform="rotate(180 810.409 570.651)" fill="white"/>
<rect x="816.219" y="555.49" width="14.524" height="12.1285" transform="rotate(180 816.219 555.49)" fill="white"/>
<rect x="775.552" y="570.651" width="2.9048" height="109.156" transform="rotate(180 775.552 570.651)" fill="white"/>
<rect x="781.361" y="564.587" width="14.524" height="81.8672" transform="rotate(180 781.361 564.587)" fill="white"/>
<rect x="758.122" y="494.848" width="2.9048" height="45.4818" transform="rotate(180 758.122 494.848)" fill="white"/>
<rect x="763.932" y="485.752" width="14.524" height="18.1927" transform="rotate(180 763.932 485.752)" fill="white"/>
<rect x="670.979" y="503.944" width="2.9048" height="48.5139" transform="rotate(180 670.979 503.944)" fill="white"/>
<rect x="676.788" y="497.88" width="14.524" height="36.3854" transform="rotate(180 676.788 497.88)" fill="white"/>
<rect x="618.692" y="513.041" width="2.9048" height="60.6424" transform="rotate(180 618.692 513.041)" fill="white"/>
<rect x="624.501" y="500.912" width="14.524" height="6.06424" transform="rotate(180 624.501 500.912)" fill="white"/>
<rect x="548.976" y="625.229" width="2.9048" height="57.6103" transform="rotate(180 548.976 625.229)" fill="white"/>
<rect x="554.786" y="619.165" width="14.524" height="24.257" transform="rotate(180 554.786 619.165)" fill="white"/>
<rect x="531.548" y="604.004" width="2.9048" height="60.6424" transform="rotate(180 531.548 604.004)" fill="white"/>
<rect x="537.357" y="597.94" width="14.524" height="39.4176" transform="rotate(180 537.357 597.94)" fill="white"/>
<rect x="479.261" y="585.811" width="2.9048" height="139.478" transform="rotate(180 479.261 585.811)" fill="white"/>
<rect x="485.07" y="579.747" width="14.524" height="121.285" transform="rotate(180 485.07 579.747)" fill="white"/>
<rect x="461.833" y="470.591" width="2.9048" height="124.317" transform="rotate(180 461.833 470.591)" fill="white"/>
<rect x="467.642" y="461.494" width="14.524" height="90.9636" transform="rotate(180 467.642 461.494)" fill="white"/>
<rect x="426.974" y="400.852" width="2.9048" height="78.8351" transform="rotate(180 426.974 400.852)" fill="white"/>
<rect x="432.783" y="382.66" width="14.524" height="51.546" transform="rotate(180 432.783 382.66)" fill="white"/>
<rect x="374.69" y="361.435" width="2.9048" height="39.4176" transform="rotate(180 374.69 361.435)" fill="white"/>
<rect x="380.499" y="358.403" width="14.524" height="21.2248" transform="rotate(180 380.499 358.403)" fill="white"/>
<rect x="339.831" y="352.338" width="2.9048" height="93.9957" transform="rotate(180 339.831 352.338)" fill="white"/>
<rect x="345.64" y="349.306" width="14.524" height="81.8672" transform="rotate(180 345.64 349.306)" fill="white"/>
<rect x="322.403" y="273.503" width="2.9048" height="51.546" transform="rotate(180 322.403 273.503)" fill="white"/>
<rect x="328.212" y="270.471" width="14.524" height="30.3212" transform="rotate(180 328.212 270.471)" fill="white"/>
<rect x="270.116" y="306.856" width="2.9048" height="133.413" transform="rotate(180 270.116 306.856)" fill="white"/>
<rect x="275.925" y="300.792" width="14.524" height="30.3212" transform="rotate(180 275.925 300.792)" fill="white"/>
<rect x="252.688" y="291.696" width="2.9048" height="142.51" transform="rotate(180 252.688 291.696)" fill="white"/>
<rect x="258.497" y="273.503" width="14.524" height="112.188" transform="rotate(180 258.497 273.503)" fill="white"/>
<rect x="235.257" y="188.604" width="2.9048" height="69.7388" transform="rotate(180 235.257 188.604)" fill="white"/>
<rect x="241.066" y="167.379" width="14.524" height="21.2248" transform="rotate(180 241.066 167.379)" fill="white"/>
<rect x="182.972" y="243.182" width="2.9048" height="48.5139" transform="rotate(180 182.972 243.182)" fill="white"/>
<rect x="188.782" y="237.117" width="14.524" height="12.1285" transform="rotate(180 188.782 237.117)" fill="white"/>
<rect x="148.113" y="270.471" width="2.9048" height="106.124" transform="rotate(180 148.113 270.471)" fill="white"/>
<rect x="153.922" y="255.31" width="14.524" height="81.8672" transform="rotate(180 153.922 255.31)" fill="white"/>
<rect x="130.685" y="188.604" width="2.9048" height="187.991" transform="rotate(180 130.685 188.604)" fill="white"/>
<rect x="136.494" y="176.475" width="14.524" height="121.285" transform="rotate(180 136.494 176.475)" fill="white"/>
<rect x="43.5424" y="318.985" width="2.9048" height="63.6745" transform="rotate(180 43.5424 318.985)" fill="white"/>
<rect x="49.3517" y="309.889" width="14.524" height="15.1606" transform="rotate(180 49.3517 309.889)" fill="white"/>
<rect x="26.1144" y="361.435" width="2.9048" height="81.8672" transform="rotate(180 26.1144 361.435)" fill="white"/>
<rect x="31.9238" y="297.76" width="14.524" height="12.1285" transform="rotate(180 31.9238 297.76)" fill="white"/>
</g>
<defs>
<filter id="filter0_d_1025_278" x="-1.0318" y="0.612061" width="1602.54" height="699.388" filterUnits="userSpaceOnUse" color-interpolation-filters="sRGB">
<feFlood flood-opacity="0" result="BackgroundImageFix"/>
<feColorMatrix in="SourceAlpha" type="matrix" values="0 0 0 0 0 0 0 0 0 0 0 0 0 0 0 0 0 0 127 0" result="hardAlpha"/>
<feOffset dy="1"/>
<feGaussianBlur stdDeviation="0.5"/>
<feComposite in2="hardAlpha" operator="out"/>
<feColorMatrix type="matrix" values="0 0 0 0 0 0 0 0 0 0 0 0 0 0 0 0 0 0 0.3 0"/>
<feBlend mode="normal" in2="BackgroundImageFix" result="effect1_dropShadow_1025_278"/>
<feBlend mode="normal" in="SourceGraphic" in2="effect1_dropShadow_1025_278" result="shape"/>
</filter>
</defs>
</svg>
