<svg width="383" height="598" viewBox="0 0 383 598" fill="none" xmlns="http://www.w3.org/2000/svg">
<path opacity="0.5" d="M0 30C0 13.4315 13.4315 1.52588e-05 30 1.52588e-05H353C369.569 1.52588e-05 383 13.4315 383 30V568C383 584.569 369.569 598 353 598H30C13.4315 598 0 584.569 0 568V30Z" fill="#16181B"/>
<g opacity="0.7">
<mask id="mask0_14_4" style="mask-type:alpha" maskUnits="userSpaceOnUse" x="3" y="0" width="380" height="189">
<rect x="383" y="1.52588e-05" width="189" height="380" rx="30" transform="rotate(90 383 1.52588e-05)" fill="#D9D9D9"/>
</mask>
<g mask="url(#mask0_14_4)">
<g filter="url(#filter0_f_14_4)">
<ellipse cx="221.823" cy="3.00001" rx="25" ry="96.7066" transform="rotate(90 221.823 3.00001)" fill="#D7314F"/>
</g>
<g filter="url(#filter1_f_14_4)">
<ellipse cx="147.111" cy="8.00001" rx="25" ry="79.6407" transform="rotate(90 147.111 8.00001)" fill="#D76D31"/>
</g>
</g>
</g>
<defs>
<filter id="filter0_f_14_4" x="25.1161" y="-122" width="393.413" height="250" filterUnits="userSpaceOnUse" color-interpolation-filters="sRGB">
<feFlood flood-opacity="0" result="BackgroundImageFix"/>
<feBlend mode="normal" in="SourceGraphic" in2="BackgroundImageFix" result="shape"/>
<feGaussianBlur stdDeviation="50" result="effect1_foregroundBlur_14_4"/>
</filter>
<filter id="filter1_f_14_4" x="-32.5293" y="-117" width="359.281" height="250" filterUnits="userSpaceOnUse" color-interpolation-filters="sRGB">
<feFlood flood-opacity="0" result="BackgroundImageFix"/>
<feBlend mode="normal" in="SourceGraphic" in2="BackgroundImageFix" result="shape"/>
<feGaussianBlur stdDeviation="50" result="effect1_foregroundBlur_14_4"/>
</filter>
</defs>
</svg>
