<svg width="16" height="15" viewBox="0 0 16 15" fill="none" xmlns="http://www.w3.org/2000/svg">
<path d="M11.0587 9.56781C11.0914 9.72745 11.0875 9.88568 11.0825 10.0489C11.0711 10.2099 11.0413 10.3717 10.9918 10.5299C10.9438 10.6857 10.93 10.8834 10.7817 10.9879C10.6413 11.0921 10.4617 11.1671 10.2196 11.1163L10.1737 11.0622C10.1549 10.8187 10.1808 10.6803 10.2206 10.5509C10.2541 10.4226 10.3984 10.3696 10.488 10.2647C10.5755 10.1619 10.6619 10.0514 10.7462 9.93332C10.8361 9.81741 10.9101 9.68941 10.9886 9.55786L11.0587 9.56781ZM11.8854 10.2789C11.9181 10.4386 11.9142 10.5968 11.9092 10.76C11.8978 10.9211 11.8679 11.0828 11.8185 11.2411C11.7705 11.3968 11.7566 11.5945 11.6084 11.699C11.4679 11.8032 11.2884 11.8782 11.0462 11.8274L11.0004 11.7733C10.9815 11.5298 11.0075 11.3915 11.0473 11.262C11.0807 11.1337 11.2251 11.0807 11.3147 10.9758C11.4022 10.8731 11.4886 10.7625 11.5728 10.6444C11.6628 10.5285 11.7367 10.4005 11.8153 10.269L11.8854 10.2789ZM10.1076 9.31608C10.1403 9.47572 10.1364 9.63394 10.1314 9.79714C10.12 9.95821 10.0902 10.12 10.0407 10.2782C9.99273 10.4339 9.97886 10.6316 9.8306 10.7362C9.69015 10.8403 9.5106 10.9154 9.26846 10.8645L9.2226 10.8105C9.20375 10.5669 9.22971 10.4286 9.26953 10.2992C9.30295 10.1712 9.44731 10.1179 9.53691 10.013C9.62437 9.91021 9.71077 9.79999 9.79504 9.68194C9.885 9.56568 9.95895 9.43768 10.0375 9.30612L10.1076 9.31608ZM9.04091 9.31608C9.07362 9.47572 9.06971 9.63394 9.06473 9.79714C9.05335 9.95821 9.02348 10.12 8.97406 10.2782C8.92606 10.4339 8.9122 10.6316 8.76393 10.7362C8.62348 10.8403 8.44393 10.9154 8.2018 10.8645L8.15593 10.8105C8.13708 10.5669 8.16304 10.4286 8.20286 10.2992C8.23628 10.1712 8.38064 10.1179 8.47024 10.013C8.55771 9.91021 8.64411 9.79999 8.72837 9.68194C8.81833 9.56568 8.89228 9.43768 8.97086 9.30612L9.04091 9.31608ZM8.21424 9.21226C8.24695 9.3719 8.24304 9.53012 8.23806 9.69332C8.22668 9.85439 8.19682 10.0162 8.1474 10.1744C8.0994 10.3301 8.08553 10.5278 7.93726 10.6323C7.79682 10.7365 7.61726 10.8115 7.37513 10.7607L7.32926 10.7067C7.31042 10.4631 7.33637 10.3248 7.3762 10.1954C7.40962 10.067 7.55397 10.014 7.64357 9.90914C7.73104 9.80639 7.81744 9.69581 7.90171 9.57777C7.99166 9.46185 8.06562 9.33386 8.1442 9.2023L8.21424 9.21226ZM11.2393 8.58932C11.2258 8.43679 11.2141 8.28959 11.1828 8.14594C11.1575 8.00372 11.1273 7.86683 11.0925 7.73634C11.0566 7.60301 10.9492 7.49314 10.9744 7.36266C10.9943 7.22932 11.0302 7.09314 11.1518 6.88123L11.2173 6.85208C11.4573 6.91039 11.5874 7.05546 11.6692 7.21048C11.7577 7.36799 11.6855 7.55252 11.6614 7.71394C11.6382 7.87786 11.5956 8.03679 11.5362 8.18719C11.4701 8.33652 11.4057 8.48052 11.3076 8.61066L11.2393 8.58932ZM10.0116 8.58932C9.99806 8.43679 9.98633 8.28959 9.95504 8.14594C9.9298 8.00372 9.89957 7.86683 9.86473 7.73634C9.82882 7.60301 9.72144 7.49314 9.74668 7.36266C9.7666 7.22932 9.80251 7.09314 9.92411 6.88123L9.98953 6.85208C10.2295 6.91039 10.3597 7.05546 10.4414 7.21048C10.53 7.36799 10.4578 7.55252 10.4336 7.71394C10.4105 7.87786 10.3678 8.03679 10.3085 8.18719C10.2423 8.33652 10.178 8.48052 10.0798 8.61066L10.0116 8.58932ZM8.94491 8.54488C8.9314 8.39234 8.91966 8.24514 8.88837 8.1015C8.86313 7.95928 8.83291 7.82239 8.79806 7.6919C8.76215 7.55857 8.65477 7.4487 8.68002 7.31821C8.69993 7.18488 8.73584 7.0487 8.85744 6.83679L8.92286 6.80763C9.16286 6.86594 9.293 7.01101 9.37477 7.16603C9.46331 7.32354 9.39113 7.50808 9.36695 7.6695C9.34384 7.83341 9.30117 7.99199 9.2418 8.14274C9.17566 8.29208 9.11131 8.43608 9.01317 8.56621L8.94491 8.54488ZM8.03931 8.18932C8.0258 8.03679 8.01406 7.88959 7.98277 7.74594C7.95753 7.60372 7.92731 7.46683 7.89246 7.33634C7.85655 7.20301 7.74917 7.09314 7.77442 6.96266C7.79433 6.82932 7.83024 6.69314 7.95184 6.48123L8.01726 6.45208C8.25726 6.51039 8.3874 6.65546 8.46917 6.81048C8.55771 6.96799 8.48553 7.15252 8.46135 7.31394C8.43824 7.47786 8.39557 7.63643 8.3362 7.78719C8.27006 7.93652 8.20571 8.08052 8.10757 8.21066L8.03931 8.18932ZM7.16713 7.83377C7.15362 7.68123 7.14188 7.53403 7.1106 7.39039C7.08535 7.24817 7.05513 7.11128 7.02028 6.98079C6.98437 6.84746 6.877 6.73759 6.90224 6.6071C6.92215 6.47377 6.95806 6.33759 7.07966 6.12568L7.14508 6.09652C7.38508 6.15483 7.51522 6.2999 7.597 6.45492C7.68553 6.61243 7.61335 6.79697 7.58917 6.95839C7.56606 7.1223 7.5234 7.28088 7.46402 7.43163C7.39788 7.58097 7.33353 7.72497 7.2354 7.8551L7.16713 7.83377ZM12.306 8.23377C12.2925 8.08123 12.2807 7.93403 12.2494 7.79039C12.2242 7.64817 12.194 7.51128 12.1591 7.38079C12.1232 7.24746 12.0158 7.13759 12.0411 7.0071C12.061 6.87377 12.0969 6.73759 12.2185 6.52568L12.2839 6.49652C12.5239 6.55483 12.6541 6.6999 12.7358 6.85492C12.8244 7.01243 12.7522 7.19697 12.728 7.35839C12.7049 7.5223 12.6622 7.68123 12.6029 7.83163C12.5367 7.98097 12.4724 8.12497 12.3742 8.2551L12.306 8.23377ZM13.2116 7.47821C13.1981 7.32568 13.1863 7.17848 13.155 7.03483C13.1298 6.89261 13.0996 6.75572 13.0647 6.62523C13.0288 6.4919 12.9214 6.38203 12.9467 6.25154C12.9666 6.11821 13.0025 5.98203 13.1241 5.77012L13.1895 5.74097C13.4295 5.79928 13.5597 5.94434 13.6414 6.09937C13.73 6.25688 13.6578 6.44141 13.6336 6.60283C13.6105 6.76674 13.5678 6.92532 13.5085 7.07608C13.4423 7.22541 13.378 7.36941 13.2798 7.49954L13.2116 7.47821Z" fill="#FFC107"/>
<path d="M2.49092 15.0001C2.49092 15.0001 1.0687 12.5112 1.42425 7.53344C1.77981 2.55566 4.97981 2.55566 5.69092 2.55566C6.40203 2.55566 8.53536 3.26678 9.24647 3.26678C9.95758 3.26678 12.0909 2.91122 12.4465 2.91122C12.802 2.91122 14.2242 2.55566 14.2242 4.689V6.11122C14.2242 6.11122 13.1576 7.17789 11.7354 7.17789C10.3131 7.17789 6.40203 7.17789 6.40203 7.17789L5.69092 8.60011C5.69092 8.60011 6.04647 13.2223 9.60203 15.0001H2.49092Z" fill="#63560A"/>
<path d="M11.7324 11.0889C8.88793 10.0222 7.46571 9.3111 6.7546 8.95555C6.04349 8.59999 5.68793 8.59999 6.39905 7.53333C6.39905 7.53333 5.33238 8.24444 3.91016 8.24444C4.62127 9.3111 4.97682 8.59999 6.7546 9.66666C8.2394 10.5577 11.2108 11.448 12.1505 11.7175C12.3354 11.3915 11.7324 11.0889 11.7324 11.0889Z" fill="#FF1744"/>
<path d="M3.91033 8.24444C3.71015 8.29457 3.4634 8.33688 3.19922 8.37706V9.09635C3.48935 9.05439 3.761 9.00924 3.99744 8.95484C4.80811 8.94026 5.50713 8.72977 6.00597 8.52426C6.00882 8.24515 6.11229 7.91555 6.39922 7.53333C6.39922 7.53333 5.33255 8.24444 3.91033 8.24444Z" fill="#D50000"/>
<path d="M12.4439 2.91117C12.0884 2.91117 9.95504 3.26673 9.24393 3.26673C8.78561 3.26673 7.73921 2.97268 6.86064 2.7629C5.5593 2.01019 4.97726 2.20006 4.97726 2.20006C4.97726 2.20006 3.19948 2.20006 3.19948 4.33339C3.19948 5.0445 2.84392 5.40006 2.84392 5.40006C2.84392 5.40006 2.13281 6.11117 2.13281 7.88895C2.13281 9.31117 2.48837 10.0223 2.48837 10.0223C2.48837 10.0223 2.84392 11.0889 3.91059 11.4445L10.6661 12.5112C10.6661 12.5112 12.0884 12.8667 12.4439 11.8001C12.4439 11.8001 8.53281 10.7334 6.75504 9.66673C4.97726 8.60006 4.6217 9.31117 3.91059 8.2445C5.33281 8.2445 6.39948 7.53339 6.39948 7.53339C6.39948 7.53339 8.88837 7.53339 10.6661 7.53339C13.155 7.53339 14.2217 6.11117 14.2217 6.11117C14.2217 5.94264 14.2217 5.54939 14.2217 4.68895C14.2217 2.55562 12.7995 2.91117 12.4439 2.91117Z" fill="#827717"/>
<path d="M6.75242 9.66667C5.65376 9.00747 5.09873 9.02454 4.66673 8.88338C4.57322 8.84107 4.45589 8.79449 4.33322 8.7152C4.28736 8.68143 4.2422 8.64516 4.19598 8.6C4.19171 8.6 4.18816 8.6 4.18389 8.6C4.08753 8.51325 3.99224 8.40089 3.90833 8.24445C3.90833 8.24445 3.55278 8.24445 3.19722 7.88889C3.17589 7.86756 3.15029 7.84196 3.12718 7.81885C2.97749 8.09369 3.21073 8.48125 3.29038 8.6H3.28967C3.29358 8.60569 3.29571 8.60854 3.29856 8.61316C3.30353 8.62027 3.30424 8.62134 3.30709 8.6256C3.31278 8.63343 3.31633 8.63876 3.31633 8.63876C3.37749 8.73049 3.43793 8.81014 3.49838 8.88516C3.9734 9.47289 4.42816 9.57423 4.86904 9.66987C5.22282 9.74667 5.663 9.84196 6.38656 10.2761C7.94353 11.2101 10.9462 12.1129 11.9439 12.3984C12.1565 12.2839 12.3414 12.0994 12.4413 11.8C12.4413 11.8 8.5302 10.7333 6.75242 9.66667Z" fill="#423603"/>
<path d="M3.91015 4.33323C3.91015 3.54781 4.34998 2.91101 5.33238 2.91101C6.7546 2.91101 7.82126 4.33323 7.82126 4.33323C7.82126 4.33323 7.11015 6.11101 5.33238 6.11101C4.34998 6.11101 3.91015 5.11866 3.91015 4.33323ZM14.2213 5.04434C14.2213 5.04434 13.599 6.00008 12.6838 6.39012C12.2046 6.62266 11.5407 6.82212 10.6657 6.82212H6.39904H6.18393L6.00473 6.94159C5.99549 6.94763 4.97326 7.61963 3.91015 7.53323C3.51691 7.50123 3.25344 7.67048 3.129 7.81874C3.15211 7.84186 3.17771 7.86746 3.19904 7.88879C3.5546 8.24434 3.91015 8.24434 3.91015 8.24434C5.33238 8.24434 6.39904 7.53323 6.39904 7.53323C6.39904 7.53323 8.88793 7.53323 10.6657 7.53323C10.8122 7.53323 10.9534 7.52754 11.0899 7.51794C11.1358 7.5151 11.1784 7.50977 11.2232 7.5055C11.3125 7.49768 11.401 7.48879 11.486 7.47706C11.5358 7.4703 11.583 7.46212 11.6314 7.4543C11.7071 7.44186 11.7822 7.4287 11.8543 7.41412C11.9023 7.40381 11.9493 7.39314 11.9951 7.38212C12.0634 7.36612 12.1302 7.3487 12.1953 7.33057C12.2394 7.31812 12.2835 7.30603 12.3258 7.29288C12.3902 7.27297 12.4517 7.25234 12.5118 7.23066C12.5498 7.21714 12.5893 7.20399 12.6259 7.18977C12.6902 7.16559 12.7514 7.13928 12.8115 7.11332C12.8399 7.10088 12.8702 7.08914 12.8979 7.07634C12.9825 7.03759 13.0636 6.99777 13.1397 6.95759C13.1596 6.94692 13.1766 6.9359 13.1958 6.92559C13.2517 6.8943 13.3071 6.86372 13.358 6.83243C13.3864 6.81501 13.412 6.79759 13.4394 6.78052C13.4774 6.75634 13.5158 6.73181 13.551 6.70763C13.5781 6.68879 13.603 6.67066 13.6286 6.65252C13.6598 6.63012 13.6904 6.60737 13.7192 6.58568C13.7427 6.56754 13.7654 6.54941 13.7871 6.53234C13.8134 6.51066 13.8387 6.49039 13.8622 6.47012C13.8821 6.45341 13.9016 6.43634 13.9198 6.4207C13.9418 6.40079 13.9621 6.3823 13.9816 6.36417C13.9969 6.34994 14.0133 6.33501 14.0268 6.32186C14.046 6.30301 14.0623 6.2863 14.0787 6.26994C14.089 6.25963 14.1011 6.24754 14.1103 6.23794C14.1327 6.21483 14.1512 6.1935 14.1669 6.17608C14.163 6.17892 14.1601 6.18034 14.1594 6.18034C14.1555 6.17963 14.2213 6.11101 14.2213 6.11101C14.2213 6.11101 14.2323 5.71101 14.2213 5.04434Z" fill="#544B09"/>
<path d="M6.39549 12.1555H5.32882V12.8666L6.03993 13.5778L6.75104 13.2222L6.39549 12.1555ZM7.1066 13.5778L6.39549 13.9333V14.6444H7.46215V13.9333L7.1066 13.5778ZM4.97326 12.1555V12.8666L4.26215 13.2222L3.55104 12.5111L3.9066 11.8L4.97326 12.1555ZM5.32882 13.2222L4.61771 13.5778L4.97326 14.6444H6.03993V13.9333L5.32882 13.2222ZM3.55104 11.8L3.19549 12.5111L2.48438 11.8L2.83993 11.0889L3.55104 11.8ZM4.26215 13.5778L3.55104 14.2889L3.9066 14.6444H4.61771L4.26215 13.5778ZM3.55104 12.8666L3.9066 13.5778H3.19549L3.55104 12.8666ZM7.81771 13.9333V14.6444H8.52882L7.81771 13.9333Z" fill="#282302"/>
<path d="M7.46484 3.2666L8.17595 3.97771L8.53151 3.62216L7.46484 3.2666ZM8.53151 3.97771L8.88707 3.62216H9.95373V4.33327L8.53151 3.97771ZM10.3093 3.62216V4.33327L11.7315 3.97771L12.0871 3.2666L10.3093 3.62216Z" fill="#9E9D24"/>
<path d="M6.75443 4.33343C6.75443 4.33343 6.04332 5.04454 5.3322 5.04454C4.62109 5.04454 4.62109 4.33343 4.62109 4.33343C4.62109 4.33343 4.62109 3.62231 5.3322 3.62231C6.04332 3.62231 6.75443 4.33343 6.75443 4.33343Z" fill="#FFEB3B"/>
<path d="M5.68759 4.3333C5.68759 4.72584 5.50981 5.04441 5.50981 5.04441C5.50981 5.04441 5.33203 4.72584 5.33203 4.3333C5.33203 3.94077 5.50981 3.62219 5.50981 3.62219C5.50981 3.62219 5.68759 3.94077 5.68759 4.3333Z" fill="#263238"/>
<path d="M12.8304 3.66417C13.102 3.77901 13.5123 4.68959 13.5123 4.68959C13.5123 4.68959 12.6881 4.76141 12.4165 4.64763C12.1448 4.53314 12.0176 4.22061 12.1317 3.94897C12.2462 3.67732 12.5591 3.55003 12.8304 3.66417Z" fill="#282302"/>
</svg>
