<svg width="60" height="74" viewBox="0 0 60 74" fill="none" xmlns="http://www.w3.org/2000/svg">
<path d="M22.1504 28.0021C21.023 30.1281 17.977 30.1281 16.8496 28.0021L4.33626 4.40551C3.27667 2.40744 4.725 9.93127e-07 6.98664 1.19085e-06L32.0134 3.37875e-06C34.275 3.57647e-06 35.7233 2.40744 34.6637 4.40551L22.1504 28.0021Z" fill="url(#paint0_radial_1025_44)"/>
<path d="M37.8496 45.9979C38.977 43.8719 42.023 43.8719 43.1504 45.9979L55.6637 69.5945C56.7233 71.5926 55.275 74 53.0134 74L27.9866 74C25.725 74 24.2767 71.5926 25.3363 69.5945L37.8496 45.9979Z" fill="url(#paint1_radial_1025_44)"/>
<g filter="url(#filter0_bii_1025_44)">
<circle cx="30" cy="37" r="30" fill="white" fill-opacity="0.03"/>
<circle cx="30" cy="37" r="29.75" stroke="url(#paint2_linear_1025_44)" stroke-width="0.5"/>
</g>
<defs>
<filter id="filter0_bii_1025_44" x="-17.8701" y="-10.8701" width="95.7403" height="95.7403" filterUnits="userSpaceOnUse" color-interpolation-filters="sRGB">
<feFlood flood-opacity="0" result="BackgroundImageFix"/>
<feGaussianBlur in="BackgroundImageFix" stdDeviation="8.93507"/>
<feComposite in2="SourceAlpha" operator="in" result="effect1_backgroundBlur_1025_44"/>
<feBlend mode="normal" in="SourceGraphic" in2="effect1_backgroundBlur_1025_44" result="shape"/>
<feColorMatrix in="SourceAlpha" type="matrix" values="0 0 0 0 0 0 0 0 0 0 0 0 0 0 0 0 0 0 127 0" result="hardAlpha"/>
<feOffset dy="0.831169"/>
<feGaussianBlur stdDeviation="0.415584"/>
<feComposite in2="hardAlpha" operator="arithmetic" k2="-1" k3="1"/>
<feColorMatrix type="matrix" values="0 0 0 0 1 0 0 0 0 1 0 0 0 0 1 0 0 0 0.15 0"/>
<feBlend mode="normal" in2="shape" result="effect2_innerShadow_1025_44"/>
<feColorMatrix in="SourceAlpha" type="matrix" values="0 0 0 0 0 0 0 0 0 0 0 0 0 0 0 0 0 0 127 0" result="hardAlpha"/>
<feOffset/>
<feGaussianBlur stdDeviation="7.06494"/>
<feComposite in2="hardAlpha" operator="arithmetic" k2="-1" k3="1"/>
<feColorMatrix type="matrix" values="0 0 0 0 1 0 0 0 0 1 0 0 0 0 1 0 0 0 0.05 0"/>
<feBlend mode="normal" in2="effect2_innerShadow_1025_44" result="effect3_innerShadow_1025_44"/>
</filter>
<radialGradient id="paint0_radial_1025_44" cx="0" cy="0" r="1" gradientUnits="userSpaceOnUse" gradientTransform="translate(15.5793 23.3553) rotate(-60.199) scale(25.2748 26.0715)">
<stop stop-color="#D5B7E8"/>
<stop offset="1" stop-color="#551296"/>
</radialGradient>
<radialGradient id="paint1_radial_1025_44" cx="0" cy="0" r="1" gradientUnits="userSpaceOnUse" gradientTransform="translate(47.9053 46.3787) rotate(120.514) scale(30.0846 30.9946)">
<stop stop-color="white"/>
<stop offset="0.510417" stop-color="#B1E9FF"/>
<stop offset="1" stop-color="#B5BCFA"/>
</radialGradient>
<linearGradient id="paint2_linear_1025_44" x1="42" y1="64.5" x2="26" y2="7" gradientUnits="userSpaceOnUse">
<stop stop-color="#B7F40B" stop-opacity="0.3"/>
<stop offset="0.264519" stop-color="#CAC825" stop-opacity="0"/>
<stop offset="0.757377" stop-color="#E8844E" stop-opacity="0"/>
<stop offset="1" stop-color="#FF4F6E" stop-opacity="0.3"/>
</linearGradient>
</defs>
</svg>
