<svg width="75" height="74" viewBox="0 0 75 74" fill="none" xmlns="http://www.w3.org/2000/svg">
<path d="M38.5868 8.91663C45.9317 1.57173 57.8401 1.57173 65.185 8.91663C72.5299 16.2615 72.5299 28.17 65.185 35.5149C57.8401 42.8598 45.9317 42.8598 38.5868 35.5149C31.2419 28.17 31.2419 16.2615 38.5868 8.91663Z" fill="url(#paint0_radial_1025_49)"/>
<path d="M11.9873 35.515C19.3322 28.1701 31.2407 28.1701 38.5856 35.515C45.9305 42.8599 45.9305 54.7683 38.5856 62.1132C31.2407 69.4581 19.3322 69.4581 11.9873 62.1132C4.64244 54.7683 4.64244 42.8599 11.9873 35.515Z" fill="url(#paint1_radial_1025_49)"/>
<g filter="url(#filter0_bii_1025_49)">
<path d="M8.08422 7.17797C17.6548 -2.39266 33.1719 -2.39266 42.7425 7.17797C52.3131 16.7486 52.3131 32.2656 42.7425 41.8363C33.1719 51.4069 17.6548 51.4069 8.08422 41.8363C-1.48641 32.2656 -1.48641 16.7486 8.08422 7.17797Z" fill="white" fill-opacity="0.03"/>
<path d="M8.26099 7.35474C17.734 -2.11825 33.0927 -2.11825 42.5657 7.35474C52.0387 16.8277 52.0387 32.1865 42.5657 41.6595C33.0927 51.1325 17.734 51.1325 8.26099 41.6595C-1.212 32.1865 -1.212 16.8277 8.26099 7.35474Z" stroke="url(#paint2_linear_1025_49)" stroke-width="0.5"/>
</g>
<g filter="url(#filter1_bii_1025_49)">
<path d="M33.0705 32.1642C42.6412 22.5936 58.1582 22.5936 67.7288 32.1642C77.2995 41.7348 77.2995 57.2518 67.7288 66.8225C58.1582 76.3931 42.6412 76.3931 33.0705 66.8225C23.4999 57.2518 23.4999 41.7348 33.0705 32.1642Z" fill="white" fill-opacity="0.03"/>
<path d="M33.2473 32.341C42.7203 22.868 58.0791 22.868 67.5521 32.341C77.0251 41.8139 77.0251 57.1727 67.5521 66.6457C58.0791 76.1187 42.7203 76.1187 33.2473 66.6457C23.7743 57.1727 23.7743 41.8139 33.2473 32.341Z" stroke="url(#paint3_linear_1025_49)" stroke-width="0.5"/>
</g>
<defs>
<filter id="filter0_bii_1025_49" x="-16.9639" y="-17.8701" width="84.7545" height="84.7545" filterUnits="userSpaceOnUse" color-interpolation-filters="sRGB">
<feFlood flood-opacity="0" result="BackgroundImageFix"/>
<feGaussianBlur in="BackgroundImageFix" stdDeviation="8.93507"/>
<feComposite in2="SourceAlpha" operator="in" result="effect1_backgroundBlur_1025_49"/>
<feBlend mode="normal" in="SourceGraphic" in2="effect1_backgroundBlur_1025_49" result="shape"/>
<feColorMatrix in="SourceAlpha" type="matrix" values="0 0 0 0 0 0 0 0 0 0 0 0 0 0 0 0 0 0 127 0" result="hardAlpha"/>
<feOffset dy="0.831169"/>
<feGaussianBlur stdDeviation="0.415584"/>
<feComposite in2="hardAlpha" operator="arithmetic" k2="-1" k3="1"/>
<feColorMatrix type="matrix" values="0 0 0 0 1 0 0 0 0 1 0 0 0 0 1 0 0 0 0.15 0"/>
<feBlend mode="normal" in2="shape" result="effect2_innerShadow_1025_49"/>
<feColorMatrix in="SourceAlpha" type="matrix" values="0 0 0 0 0 0 0 0 0 0 0 0 0 0 0 0 0 0 127 0" result="hardAlpha"/>
<feOffset/>
<feGaussianBlur stdDeviation="7.06494"/>
<feComposite in2="hardAlpha" operator="arithmetic" k2="-1" k3="1"/>
<feColorMatrix type="matrix" values="0 0 0 0 1 0 0 0 0 1 0 0 0 0 1 0 0 0 0.05 0"/>
<feBlend mode="normal" in2="effect2_innerShadow_1025_49" result="effect3_innerShadow_1025_49"/>
</filter>
<filter id="filter1_bii_1025_49" x="8.02245" y="7.11608" width="84.7545" height="84.7545" filterUnits="userSpaceOnUse" color-interpolation-filters="sRGB">
<feFlood flood-opacity="0" result="BackgroundImageFix"/>
<feGaussianBlur in="BackgroundImageFix" stdDeviation="8.93507"/>
<feComposite in2="SourceAlpha" operator="in" result="effect1_backgroundBlur_1025_49"/>
<feBlend mode="normal" in="SourceGraphic" in2="effect1_backgroundBlur_1025_49" result="shape"/>
<feColorMatrix in="SourceAlpha" type="matrix" values="0 0 0 0 0 0 0 0 0 0 0 0 0 0 0 0 0 0 127 0" result="hardAlpha"/>
<feOffset dy="0.831169"/>
<feGaussianBlur stdDeviation="0.415584"/>
<feComposite in2="hardAlpha" operator="arithmetic" k2="-1" k3="1"/>
<feColorMatrix type="matrix" values="0 0 0 0 1 0 0 0 0 1 0 0 0 0 1 0 0 0 0.15 0"/>
<feBlend mode="normal" in2="shape" result="effect2_innerShadow_1025_49"/>
<feColorMatrix in="SourceAlpha" type="matrix" values="0 0 0 0 0 0 0 0 0 0 0 0 0 0 0 0 0 0 127 0" result="hardAlpha"/>
<feOffset/>
<feGaussianBlur stdDeviation="7.06494"/>
<feComposite in2="hardAlpha" operator="arithmetic" k2="-1" k3="1"/>
<feColorMatrix type="matrix" values="0 0 0 0 1 0 0 0 0 1 0 0 0 0 1 0 0 0 0.05 0"/>
<feBlend mode="normal" in2="effect2_innerShadow_1025_49" result="effect3_innerShadow_1025_49"/>
</filter>
<radialGradient id="paint0_radial_1025_49" cx="0" cy="0" r="1" gradientUnits="userSpaceOnUse" gradientTransform="translate(59.8446 9.53894) rotate(119.061) scale(33.7981)">
<stop stop-color="white"/>
<stop offset="0.510417" stop-color="#B1E9FF"/>
<stop offset="1" stop-color="#B5BCFA"/>
</radialGradient>
<radialGradient id="paint1_radial_1025_49" cx="0" cy="0" r="1" gradientUnits="userSpaceOnUse" gradientTransform="translate(29.5001 41) rotate(118.369) scale(28.4121)">
<stop stop-color="#D5B7E8"/>
<stop offset="1" stop-color="#551296"/>
</radialGradient>
<linearGradient id="paint2_linear_1025_49" x1="35.2162" y1="46.972" x2="22.1457" y2="1.09107e-06" gradientUnits="userSpaceOnUse">
<stop stop-color="#B7F40B" stop-opacity="0.3"/>
<stop offset="0.264519" stop-color="#CAC825" stop-opacity="0"/>
<stop offset="0.757377" stop-color="#E8844E" stop-opacity="0"/>
<stop offset="1" stop-color="#FF4F6E" stop-opacity="0.3"/>
</linearGradient>
<linearGradient id="paint3_linear_1025_49" x1="60.2025" y1="71.9582" x2="47.1321" y2="24.9862" gradientUnits="userSpaceOnUse">
<stop stop-color="#B7F40B" stop-opacity="0.3"/>
<stop offset="0.264519" stop-color="#CAC825" stop-opacity="0"/>
<stop offset="0.757377" stop-color="#E8844E" stop-opacity="0"/>
<stop offset="1" stop-color="#FF4F6E" stop-opacity="0.3"/>
</linearGradient>
</defs>
</svg>
