<svg width="84" height="34" viewBox="0 0 84 34" fill="none" xmlns="http://www.w3.org/2000/svg">
<path d="M37.9755 34C35.4211 34 33.2419 33.4412 31.4379 32.3236C29.6498 31.2061 28.2768 29.7134 27.3189 27.8455C26.377 25.9776 25.906 23.9181 25.906 21.667C25.906 19.4159 26.377 17.3485 27.3189 15.4646C28.2768 13.5807 29.6498 12.08 31.4379 10.9625C33.2419 9.82896 35.4211 9.26221 37.9755 9.26221C40.514 9.26221 42.6852 9.82896 44.4892 10.9625C46.2933 12.08 47.6663 13.5807 48.6082 15.4646C49.5661 17.3485 50.0451 19.4159 50.0451 21.667C50.0451 23.9181 49.5661 25.9776 48.6082 27.8455C47.6663 29.7134 46.2933 31.2061 44.4892 32.3236C42.6852 33.4412 40.514 34 37.9755 34ZM37.9755 29.4978C40.0829 29.4978 41.7034 28.7874 42.8369 27.3665C43.9864 25.9297 44.5611 24.0298 44.5611 21.667C44.5611 19.2723 43.9864 17.3565 42.8369 15.9196C41.7034 14.4828 40.0829 13.7643 37.9755 13.7643C35.8682 13.7643 34.2397 14.4828 33.0902 15.9196C31.9408 17.3565 31.366 19.2723 31.366 21.667C31.366 24.0298 31.9408 25.9297 33.0902 27.3665C34.2397 28.7874 35.8682 29.4978 37.9755 29.4978Z" fill="white"/>
<path d="M54.4027 33.521C53.8504 33.521 53.4027 33.0733 53.4027 32.521V10.7412C53.4027 10.1889 53.8504 9.74116 54.4027 9.74116H57.323C57.8418 9.74116 58.2745 10.138 58.3192 10.6549L58.5035 12.7825C59.3337 11.8086 60.2996 10.9784 61.4012 10.2919C62.5028 9.60545 63.6921 9.26221 64.9693 9.26221C65.0472 9.26221 65.124 9.26385 65.1998 9.26715C65.6922 9.28852 66.0183 9.7442 65.9793 10.2355L65.6889 13.898C65.6509 14.3773 65.1861 14.6996 64.7059 14.6743C64.4026 14.6424 64.0913 14.6264 63.772 14.6264C62.6863 14.6264 61.6885 14.8739 60.7785 15.3688C59.8685 15.8637 59.2299 16.4385 58.8627 17.093V32.521C58.8627 33.0733 58.415 33.521 57.8627 33.521H54.4027Z" fill="white"/>
<path d="M78.9512 33.9996C77.4505 33.9996 76.2372 33.7042 75.3112 33.1135C74.3852 32.5228 73.7067 31.7725 73.2757 30.8625C72.8446 29.9365 72.6291 28.9706 72.6291 27.9648V15.0753C72.6291 14.523 72.1814 14.0753 71.6291 14.0753H70.1057C69.5099 14.0753 69.0463 13.5576 69.1117 12.9655L69.3697 10.631C69.4257 10.1243 69.8538 9.7408 70.3636 9.7408H71.6291C72.1814 9.7408 72.6291 9.29308 72.6291 8.7408V5.18294C72.6291 4.67038 73.0166 4.2408 73.5265 4.18822L76.8668 3.8437C77.4565 3.78288 77.9694 4.24556 77.9694 4.83842V8.7408C77.9694 9.29308 78.4171 9.7408 78.9694 9.7408H82.5731C83.1254 9.7408 83.5731 10.1885 83.5731 10.7408V13.0753C83.5731 13.6276 83.1254 14.0753 82.5731 14.0753H78.9694C78.4171 14.0753 77.9694 14.523 77.9694 15.0753V25.4503C77.9694 26.7754 78.0492 27.7333 78.2089 28.324C78.3685 28.8988 78.7357 29.266 79.3104 29.4256C79.8852 29.5693 80.8111 29.6412 82.0883 29.6412H82.4154C83.0087 29.6412 83.4716 30.1548 83.41 30.745L83.1637 33.1034C83.1106 33.6127 82.6812 33.9996 82.1692 33.9996H78.9512Z" fill="white"/>
<path d="M25.2747 32.5149V29.5222C25.2747 28.9699 24.827 28.5222 24.2747 28.5222H2.93029L0.883993 32.0088C0.492733 32.6754 0.973446 33.5149 1.74642 33.5149H24.2747C24.827 33.5149 25.2747 33.0672 25.2747 32.5149Z" fill="white"/>
<path d="M1.9022 0.999967L1.9022 3.99267C1.9022 4.54496 2.34992 4.99267 2.90221 4.99267L22.595 4.99268L24.64 1.50586C25.0309 0.839214 24.5502 -3.29868e-05 23.7774 -3.30544e-05L2.9022 -3.2972e-05C2.34992 -3.30203e-05 1.9022 0.447682 1.9022 0.999967Z" fill="#3399F6"/>
<path d="M10.2342 16.0889L8.65252 28.5219H2.93091L10.2342 16.0889Z" fill="url(#paint0_linear_1025_719)"/>
<path d="M15.272 17.3159L16.8565 4.99142L22.5781 4.99142L15.272 17.3159Z" fill="url(#paint1_linear_1025_719)"/>
<defs>
<linearGradient id="paint0_linear_1025_719" x1="6.58257" y1="16.0889" x2="6.58257" y2="28.5219" gradientUnits="userSpaceOnUse">
<stop stop-color="white"/>
<stop offset="1" stop-color="#ACACAC"/>
</linearGradient>
<linearGradient id="paint1_linear_1025_719" x1="18.9251" y1="17.3159" x2="18.9251" y2="4.99142" gradientUnits="userSpaceOnUse">
<stop stop-color="#43A4FC"/>
<stop offset="1" stop-color="#0062BB"/>
</linearGradient>
</defs>
</svg>
