<svg width="120" height="24" viewBox="0 0 120 24" fill="none" xmlns="http://www.w3.org/2000/svg">
<path d="M11.6222 1.08696C11.7467 0.728732 12.2533 0.728731 12.3778 1.08695L14.73 7.8538C14.7849 8.01183 14.9324 8.11898 15.0997 8.12239L22.2622 8.26835C22.6413 8.27608 22.7979 8.75789 22.4957 8.98702L16.7869 13.3151C16.6536 13.4162 16.5972 13.5896 16.6457 13.7497L18.7202 20.6068C18.83 20.9698 18.4202 21.2675 18.1089 21.0509L12.2285 16.959C12.0911 16.8634 11.9089 16.8634 11.7715 16.959L5.89114 21.0509C5.57985 21.2675 5.16998 20.9698 5.27981 20.6068L7.35433 13.7497C7.40277 13.5896 7.34644 13.4162 7.21312 13.3151L1.50432 8.98702C1.20211 8.7579 1.35866 8.27608 1.73783 8.26835L8.90034 8.12239C9.06761 8.11898 9.21509 8.01183 9.27002 7.8538L11.6222 1.08696Z" fill="#FFC107"/>
<path d="M35.6222 1.08696C35.7467 0.728732 36.2533 0.728731 36.3778 1.08695L38.73 7.8538C38.7849 8.01183 38.9324 8.11898 39.0997 8.12239L46.2622 8.26835C46.6413 8.27608 46.7979 8.75789 46.4957 8.98702L40.7869 13.3151C40.6536 13.4162 40.5972 13.5896 40.6457 13.7497L42.7202 20.6068C42.83 20.9698 42.4202 21.2675 42.1089 21.0509L36.2285 16.959C36.0911 16.8634 35.9089 16.8634 35.7715 16.959L29.8911 21.0509C29.5798 21.2675 29.17 20.9698 29.2798 20.6068L31.3543 13.7497C31.4028 13.5896 31.3464 13.4162 31.2131 13.3151L25.5043 8.98702C25.2021 8.7579 25.3587 8.27608 25.7378 8.26835L32.9003 8.12239C33.0676 8.11898 33.2151 8.01183 33.27 7.8538L35.6222 1.08696Z" fill="#FFC107"/>
<path d="M59.6222 1.08696C59.7467 0.728732 60.2533 0.728731 60.3778 1.08695L62.73 7.8538C62.7849 8.01183 62.9324 8.11898 63.0997 8.12239L70.2622 8.26835C70.6413 8.27608 70.7979 8.75789 70.4957 8.98702L64.7869 13.3151C64.6536 13.4162 64.5972 13.5896 64.6457 13.7497L66.7202 20.6068C66.83 20.9698 66.4202 21.2675 66.1089 21.0509L60.2285 16.959C60.0911 16.8634 59.9089 16.8634 59.7715 16.959L53.8911 21.0509C53.5798 21.2675 53.17 20.9698 53.2798 20.6068L55.3543 13.7497C55.4028 13.5896 55.3464 13.4162 55.2131 13.3151L49.5043 8.98702C49.2021 8.7579 49.3587 8.27608 49.7378 8.26835L56.9003 8.12239C57.0676 8.11898 57.2151 8.01183 57.27 7.8538L59.6222 1.08696Z" fill="#FFC107"/>
<path d="M83.6222 1.08696C83.7467 0.728732 84.2533 0.728731 84.3778 1.08695L86.73 7.8538C86.7849 8.01183 86.9324 8.11898 87.0997 8.12239L94.2622 8.26835C94.6413 8.27608 94.7979 8.75789 94.4957 8.98702L88.7869 13.3151C88.6536 13.4162 88.5972 13.5896 88.6457 13.7497L90.7202 20.6068C90.83 20.9698 90.4202 21.2675 90.1089 21.0509L84.2285 16.959C84.0911 16.8634 83.9089 16.8634 83.7715 16.959L77.8911 21.0509C77.5798 21.2675 77.17 20.9698 77.2798 20.6068L79.3543 13.7497C79.4028 13.5896 79.3464 13.4162 79.2131 13.3151L73.5043 8.98702C73.2021 8.7579 73.3587 8.27608 73.7378 8.26835L80.9003 8.12239C81.0676 8.11898 81.2151 8.01183 81.27 7.8538L83.6222 1.08696Z" fill="#FFC107"/>
<path d="M107.622 1.08696C107.747 0.728732 108.253 0.728731 108.378 1.08695L110.73 7.8538C110.785 8.01183 110.932 8.11898 111.1 8.12239L118.262 8.26835C118.641 8.27608 118.798 8.75789 118.496 8.98702L112.787 13.3151C112.654 13.4162 112.597 13.5896 112.646 13.7497L114.72 20.6068C114.83 20.9698 114.42 21.2675 114.109 21.0509L108.228 16.959C108.091 16.8634 107.909 16.8634 107.772 16.959L101.891 21.0509C101.58 21.2675 101.17 20.9698 101.28 20.6068L103.354 13.7497C103.403 13.5896 103.346 13.4162 103.213 13.3151L97.5043 8.98702C97.2021 8.7579 97.3587 8.27608 97.7378 8.26835L104.9 8.12239C105.068 8.11898 105.215 8.01183 105.27 7.8538L107.622 1.08696Z" fill="#FFC107"/>
</svg>
