<svg width="1170" height="510" viewBox="0 0 1170 510" fill="none" xmlns="http://www.w3.org/2000/svg">
<rect opacity="0.5" x="605" y="380" width="200" height="82" rx="30" fill="#17181B"/>
<rect opacity="0.5" x="825" y="380" width="60" height="41" rx="20.5" fill="#17181B"/>
<rect opacity="0.5" x="424" y="112" width="141" height="41" rx="20.5" fill="#17181B"/>
<path d="M0 211.4C0 197.959 0 191.238 2.61584 186.104C4.9168 181.588 8.58834 177.917 13.1042 175.616C18.2381 173 24.9587 173 38.4 173H585V471.6C585 485.041 585 491.762 582.384 496.896C580.083 501.412 576.412 505.083 571.896 507.384C566.762 510 560.041 510 546.6 510H38.4C24.9587 510 18.2381 510 13.1042 507.384C8.58834 505.083 4.9168 501.412 2.61584 496.896C0 491.762 0 485.041 0 471.6V211.4Z" fill="#17181B"/>
<path d="M585 38.4C585 24.9587 585 18.2381 587.616 13.1042C589.917 8.58834 593.588 4.9168 598.104 2.61584C603.238 0 609.959 0 623.4 0H1131.6C1145.04 0 1151.76 0 1156.9 2.61584C1161.41 4.9168 1165.08 8.58834 1167.38 13.1042C1170 18.2381 1170 24.9587 1170 38.4V321.6C1170 335.041 1170 341.762 1167.38 346.896C1165.08 351.412 1161.41 355.083 1156.9 357.384C1151.76 360 1145.04 360 1131.6 360H585V38.4Z" fill="#17181B"/>
<path fill-rule="evenodd" clip-rule="evenodd" d="M625 360H585V400C585 377.909 602.909 360 625 360Z" fill="#17181B"/>
<path fill-rule="evenodd" clip-rule="evenodd" d="M545 173H585V133C585 155.091 567.091 173 545 173Z" fill="#17181B"/>
</svg>
