<svg width="238" height="174" viewBox="0 0 238 174" fill="none" xmlns="http://www.w3.org/2000/svg">
<g filter="url(#filter0_d_1025_734)">
<rect x="12.0002" y="12" width="214" height="67" rx="20" fill="#1D1F22"/>
<rect x="11.1137" y="11.1134" width="215.773" height="68.7731" rx="20.8865" stroke="url(#paint0_linear_1025_734)" stroke-width="1.77308"/>
</g>
<path opacity="0.2" d="M81.8974 55.9873V33.4209H83.343V55.9873H81.8974ZM85.7319 40.8696C85.6614 40.1585 85.3587 39.6061 84.824 39.2124C84.2892 38.8186 83.5634 38.6217 82.6467 38.6217C82.0237 38.6217 81.4978 38.7099 81.0688 38.8862C80.6398 39.0566 80.3107 39.2946 80.0815 39.6002C79.8582 39.9058 79.7465 40.2525 79.7465 40.6404C79.7348 40.9636 79.8023 41.2457 79.9493 41.4866C80.1021 41.7276 80.3107 41.9362 80.5751 42.1125C80.8396 42.2829 81.1452 42.4328 81.4919 42.5621C81.8386 42.6855 82.2088 42.7913 82.6026 42.8794L84.2245 43.2673C85.012 43.4436 85.7348 43.6786 86.393 43.9725C87.0512 44.2663 87.6213 44.6277 88.1031 45.0567C88.585 45.4857 88.9582 45.9911 89.2227 46.5729C89.493 47.1547 89.6311 47.8217 89.637 48.5739C89.6311 49.6787 89.349 50.6366 88.7907 51.4476C88.2383 52.2527 87.4391 52.8786 86.393 53.3252C85.3529 53.7659 84.0982 53.9863 82.629 53.9863C81.1716 53.9863 79.9022 53.763 78.8209 53.3164C77.7455 52.8697 76.9051 52.2086 76.2998 51.333C75.7004 50.4515 75.386 49.3614 75.3566 48.0626H79.0501C79.0913 48.6679 79.2646 49.1733 79.5702 49.5788C79.8817 49.9784 80.296 50.2811 80.8131 50.4868C81.3362 50.6866 81.9268 50.7865 82.5849 50.7865C83.2314 50.7865 83.7926 50.6924 84.2686 50.5044C84.7505 50.3163 85.1237 50.0548 85.3881 49.7199C85.6526 49.3849 85.7848 49 85.7848 48.5651C85.7848 48.1596 85.6643 47.8187 85.4234 47.5425C85.1883 47.2663 84.8416 47.0313 84.3832 46.8373C83.9307 46.6434 83.3754 46.4671 82.7172 46.3084L80.7514 45.8148C79.2294 45.4446 78.0276 44.8657 77.1461 44.0782C76.2646 43.2908 75.8268 42.23 75.8326 40.896C75.8268 39.803 76.1177 38.848 76.7053 38.0311C77.2989 37.2143 78.1128 36.5767 79.1471 36.1183C80.1814 35.6599 81.3567 35.4307 82.6731 35.4307C84.013 35.4307 85.1824 35.6599 86.1815 36.1183C87.1864 36.5767 87.968 37.2143 88.5263 38.0311C89.0846 38.848 89.3725 39.7941 89.3901 40.8696H85.7319Z" fill="white"/>
<path d="M95.4635 53.7307V50.9804L101.89 45.0303C102.436 44.5014 102.895 44.0254 103.265 43.6022C103.641 43.1791 103.926 42.7648 104.12 42.3593C104.314 41.9479 104.411 41.5043 104.411 41.0282C104.411 40.4993 104.29 40.0439 104.049 39.6619C103.808 39.2741 103.479 38.9773 103.062 38.7716C102.645 38.56 102.172 38.4543 101.643 38.4543C101.09 38.4543 100.609 38.5659 100.197 38.7892C99.7858 39.0125 99.4685 39.3328 99.2451 39.7501C99.0218 40.1673 98.9102 40.6639 98.9102 41.2398H95.2872C95.2872 40.0586 95.5546 39.0331 96.0894 38.1634C96.6241 37.2936 97.3734 36.6207 98.3372 36.1447C99.301 35.6687 100.412 35.4307 101.669 35.4307C102.962 35.4307 104.088 35.6599 105.045 36.1183C106.009 36.5708 106.758 37.1996 107.293 38.0047C107.828 38.8098 108.095 39.7324 108.095 40.7726C108.095 41.4543 107.96 42.1272 107.69 42.7913C107.425 43.4553 106.952 44.1928 106.271 45.0038C105.589 45.8089 104.628 46.7756 103.388 47.904L100.753 50.4868V50.6102H108.333V53.7307H95.4635ZM118.178 54.1274C116.661 54.1215 115.357 53.7483 114.264 53.0079C113.177 52.2674 112.339 51.1949 111.751 49.7904C111.17 48.3858 110.882 46.6963 110.888 44.7217C110.888 42.7531 111.178 41.0753 111.76 39.6884C112.348 38.3015 113.185 37.2466 114.273 36.5238C115.366 35.7951 116.667 35.4307 118.178 35.4307C119.688 35.4307 120.987 35.7951 122.074 36.5238C123.167 37.2525 124.007 38.3103 124.595 39.6972C125.183 41.0782 125.473 42.7531 125.468 44.7217C125.468 46.7022 125.174 48.3947 124.586 49.7992C124.004 51.2037 123.17 52.2762 122.083 53.0167C120.995 53.7571 119.694 54.1274 118.178 54.1274ZM118.178 50.9628C119.212 50.9628 120.038 50.4427 120.655 49.4025C121.272 48.3623 121.577 46.8021 121.571 44.7217C121.571 43.3525 121.43 42.2124 121.148 41.3015C120.872 40.3906 120.478 39.706 119.967 39.2476C119.462 38.7892 118.865 38.56 118.178 38.56C117.149 38.56 116.326 39.0743 115.709 40.1027C115.092 41.1311 114.781 42.6708 114.775 44.7217C114.775 46.1086 114.913 47.2663 115.189 48.1949C115.471 49.1175 115.868 49.8109 116.379 50.2752C116.891 50.7336 117.49 50.9628 118.178 50.9628ZM135.268 54.1274C133.752 54.1215 132.447 53.7483 131.354 53.0079C130.267 52.2674 129.429 51.1949 128.842 49.7904C128.26 48.3858 127.972 46.6963 127.978 44.7217C127.978 42.7531 128.269 41.0753 128.85 39.6884C129.438 38.3015 130.275 37.2466 131.363 36.5238C132.456 35.7951 133.757 35.4307 135.268 35.4307C136.778 35.4307 138.077 35.7951 139.164 36.5238C140.257 37.2525 141.097 38.3103 141.685 39.6972C142.273 41.0782 142.564 42.7531 142.558 44.7217C142.558 46.7022 142.264 48.3947 141.676 49.7992C141.094 51.2037 140.26 52.2762 139.173 53.0167C138.086 53.7571 136.784 54.1274 135.268 54.1274ZM135.268 50.9628C136.302 50.9628 137.128 50.4427 137.745 49.4025C138.362 48.3623 138.667 46.8021 138.661 44.7217C138.661 43.3525 138.52 42.2124 138.238 41.3015C137.962 40.3906 137.568 39.706 137.057 39.2476C136.552 38.7892 135.955 38.56 135.268 38.56C134.239 38.56 133.417 39.0743 132.799 40.1027C132.182 41.1311 131.871 42.6708 131.865 44.7217C131.865 46.1086 132.003 47.2663 132.279 48.1949C132.561 49.1175 132.958 49.8109 133.469 50.2752C133.981 50.7336 134.58 50.9628 135.268 50.9628Z" fill="url(#paint1_linear_1025_734)"/>
<path opacity="0.03" d="M8.00021 110.8C8.00021 107.044 11.0331 104 14.7744 104H71.226C74.9673 104 78.0002 107.044 78.0002 110.8V165.2C78.0002 168.956 74.9673 172 71.226 172H14.7744C11.0331 172 8.00021 168.956 8.00021 165.2V110.8Z" fill="white"/>
<path opacity="0.03" d="M6.00021 109.2C6.00021 105.224 9.20643 102 13.1615 102H72.8389C76.794 102 80.0002 105.224 80.0002 109.2V166.8C80.0002 170.776 76.794 174 72.8389 174H13.1615C9.20644 174 6.00021 170.776 6.00021 166.8V109.2Z" fill="white"/>
<path opacity="0.03" d="M85.0002 110.8C85.0002 107.044 88.0331 104 91.7744 104H148.226C151.967 104 155 107.044 155 110.8V165.2C155 168.956 151.967 172 148.226 172H91.7744C88.0331 172 85.0002 168.956 85.0002 165.2V110.8Z" fill="white"/>
<path opacity="0.03" d="M10.0002 112.4C10.0002 108.865 12.8598 106 16.3873 106H69.6131C73.1406 106 76.0002 108.865 76.0002 112.4V163.6C76.0002 167.135 73.1406 170 69.6131 170H16.3873C12.8598 170 10.0002 167.135 10.0002 163.6V112.4Z" fill="white"/>
<path opacity="0.03" d="M87.0002 112.4C87.0002 108.865 89.8598 106 93.3873 106H146.613C150.141 106 153 108.865 153 112.4V163.6C153 167.135 150.141 170 146.613 170H93.3873C89.8598 170 87.0002 167.135 87.0002 163.6V112.4Z" fill="white"/>
<path opacity="0.03" d="M164 112.4C164 108.865 166.86 106 170.387 106H223.613C227.141 106 230 108.865 230 112.4V163.6C230 167.135 227.141 170 223.613 170H170.387C166.86 170 164 167.135 164 163.6V112.4Z" fill="white"/>
<g filter="url(#filter1_i_1025_734)">
<rect x="12.0002" y="108" width="62" height="60" rx="10" fill="#191A1F"/>
<rect x="12.0002" y="108" width="62" height="60" rx="10" fill="url(#paint2_linear_1025_734)" fill-opacity="0.06"/>
</g>
<rect x="13.0002" y="109" width="60" height="58" rx="9" stroke="black" stroke-width="2"/>
<path d="M40.883 135.352V135.293C40.883 133.994 41.8108 132.861 43.383 132.861C44.7795 132.861 45.8244 133.74 45.8244 135.156C45.8244 136.367 45.0432 137.295 44.2912 138.154L39.3108 143.926V145H47.8069V143.506H41.6936V143.477L45.2873 139.258C46.5862 137.744 47.5529 136.65 47.5529 135.039C47.5529 132.939 45.9221 131.387 43.4319 131.387C40.7268 131.387 39.2229 133.242 39.2229 135.293V135.352H40.883Z" fill="white"/>
<g filter="url(#filter2_i_1025_734)">
<rect x="89.0002" y="108" width="62" height="60" rx="10" fill="#191A1F"/>
<rect x="89.0002" y="108" width="62" height="60" rx="10" fill="url(#paint3_linear_1025_734)" fill-opacity="0.06"/>
</g>
<rect x="90.0002" y="109" width="60" height="58" rx="9" stroke="black" stroke-width="2"/>
<path opacity="0.9" d="M115.303 138.867C115.303 142.783 116.963 145.283 120 145.283C123.057 145.283 124.688 142.764 124.688 138.867V137.832C124.688 133.896 123.047 131.387 120.01 131.387C116.973 131.387 115.303 133.906 115.303 137.832V138.867ZM116.992 137.842C116.992 134.687 118.135 132.881 120 132.881C121.856 132.881 122.998 134.687 122.998 137.842V138.848C122.998 142.002 121.856 143.789 120 143.789C118.135 143.789 116.992 142.002 116.992 138.848V137.842Z" fill="white"/>
<g filter="url(#filter3_i_1025_734)">
<rect x="166" y="108" width="62" height="60" rx="10" fill="#191A1F"/>
<rect x="166" y="108" width="62" height="60" rx="10" fill="url(#paint4_linear_1025_734)" fill-opacity="0.06"/>
</g>
<rect x="167" y="109" width="60" height="58" rx="9" stroke="black" stroke-width="2"/>
<path opacity="0.9" d="M192.303 138.867C192.303 142.783 193.963 145.283 197 145.283C200.057 145.283 201.688 142.764 201.688 138.867V137.832C201.688 133.896 200.047 131.387 197.01 131.387C193.973 131.387 192.303 133.906 192.303 137.832V138.867ZM193.992 137.842C193.992 134.687 195.135 132.881 197 132.881C198.856 132.881 199.998 134.687 199.998 137.842V138.848C199.998 142.002 198.856 143.789 197 143.789C195.135 143.789 193.992 142.002 193.992 138.848V137.842Z" fill="white"/>
<rect x="149" y="24" width="3" height="40" fill="url(#paint5_linear_1025_734)"/>
<rect x="96.0002" y="24" width="56" height="40" fill="url(#paint6_linear_1025_734)"/>
<defs>
<filter id="filter0_d_1025_734" x="0.227142" y="0.226898" width="237.546" height="90.5461" filterUnits="userSpaceOnUse" color-interpolation-filters="sRGB">
<feFlood flood-opacity="0" result="BackgroundImageFix"/>
<feColorMatrix in="SourceAlpha" type="matrix" values="0 0 0 0 0 0 0 0 0 0 0 0 0 0 0 0 0 0 127 0" result="hardAlpha"/>
<feOffset/>
<feGaussianBlur stdDeviation="5"/>
<feComposite in2="hardAlpha" operator="out"/>
<feColorMatrix type="matrix" values="0 0 0 0 1 0 0 0 0 1 0 0 0 0 1 0 0 0 0.16 0"/>
<feBlend mode="normal" in2="BackgroundImageFix" result="effect1_dropShadow_1025_734"/>
<feBlend mode="normal" in="SourceGraphic" in2="effect1_dropShadow_1025_734" result="shape"/>
</filter>
<filter id="filter1_i_1025_734" x="12.0002" y="108" width="62" height="61" filterUnits="userSpaceOnUse" color-interpolation-filters="sRGB">
<feFlood flood-opacity="0" result="BackgroundImageFix"/>
<feBlend mode="normal" in="SourceGraphic" in2="BackgroundImageFix" result="shape"/>
<feColorMatrix in="SourceAlpha" type="matrix" values="0 0 0 0 0 0 0 0 0 0 0 0 0 0 0 0 0 0 127 0" result="hardAlpha"/>
<feOffset dy="3"/>
<feGaussianBlur stdDeviation="0.5"/>
<feComposite in2="hardAlpha" operator="arithmetic" k2="-1" k3="1"/>
<feColorMatrix type="matrix" values="0 0 0 0 1 0 0 0 0 1 0 0 0 0 1 0 0 0 0.15 0"/>
<feBlend mode="normal" in2="shape" result="effect1_innerShadow_1025_734"/>
</filter>
<filter id="filter2_i_1025_734" x="89.0002" y="108" width="62" height="61" filterUnits="userSpaceOnUse" color-interpolation-filters="sRGB">
<feFlood flood-opacity="0" result="BackgroundImageFix"/>
<feBlend mode="normal" in="SourceGraphic" in2="BackgroundImageFix" result="shape"/>
<feColorMatrix in="SourceAlpha" type="matrix" values="0 0 0 0 0 0 0 0 0 0 0 0 0 0 0 0 0 0 127 0" result="hardAlpha"/>
<feOffset dy="3"/>
<feGaussianBlur stdDeviation="0.5"/>
<feComposite in2="hardAlpha" operator="arithmetic" k2="-1" k3="1"/>
<feColorMatrix type="matrix" values="0 0 0 0 1 0 0 0 0 1 0 0 0 0 1 0 0 0 0.15 0"/>
<feBlend mode="normal" in2="shape" result="effect1_innerShadow_1025_734"/>
</filter>
<filter id="filter3_i_1025_734" x="166" y="108" width="62" height="61" filterUnits="userSpaceOnUse" color-interpolation-filters="sRGB">
<feFlood flood-opacity="0" result="BackgroundImageFix"/>
<feBlend mode="normal" in="SourceGraphic" in2="BackgroundImageFix" result="shape"/>
<feColorMatrix in="SourceAlpha" type="matrix" values="0 0 0 0 0 0 0 0 0 0 0 0 0 0 0 0 0 0 127 0" result="hardAlpha"/>
<feOffset dy="3"/>
<feGaussianBlur stdDeviation="0.5"/>
<feComposite in2="hardAlpha" operator="arithmetic" k2="-1" k3="1"/>
<feColorMatrix type="matrix" values="0 0 0 0 1 0 0 0 0 1 0 0 0 0 1 0 0 0 0.15 0"/>
<feBlend mode="normal" in2="shape" result="effect1_innerShadow_1025_734"/>
</filter>
<linearGradient id="paint0_linear_1025_734" x1="12.0002" y1="12" x2="228.735" y2="68.5108" gradientUnits="userSpaceOnUse">
<stop stop-color="#BAECFF"/>
<stop offset="1" stop-color="#B7C1FF"/>
</linearGradient>
<linearGradient id="paint1_linear_1025_734" x1="94.0002" y1="29.7307" x2="147.099" y2="36.955" gradientUnits="userSpaceOnUse">
<stop stop-color="#BAECFF"/>
<stop offset="1" stop-color="#B7C1FF"/>
</linearGradient>
<linearGradient id="paint2_linear_1025_734" x1="43.0002" y1="108" x2="43.0002" y2="168" gradientUnits="userSpaceOnUse">
<stop stop-color="white" stop-opacity="0"/>
<stop offset="1" stop-color="white"/>
</linearGradient>
<linearGradient id="paint3_linear_1025_734" x1="120" y1="108" x2="120" y2="168" gradientUnits="userSpaceOnUse">
<stop stop-color="white" stop-opacity="0"/>
<stop offset="1" stop-color="white"/>
</linearGradient>
<linearGradient id="paint4_linear_1025_734" x1="197" y1="108" x2="197" y2="168" gradientUnits="userSpaceOnUse">
<stop stop-color="white" stop-opacity="0"/>
<stop offset="1" stop-color="white"/>
</linearGradient>
<linearGradient id="paint5_linear_1025_734" x1="149" y1="24" x2="152.245" y2="24.0198" gradientUnits="userSpaceOnUse">
<stop stop-color="#BAECFF"/>
<stop offset="1" stop-color="#B7C1FF"/>
</linearGradient>
<linearGradient id="paint6_linear_1025_734" x1="152" y1="40" x2="96.0002" y2="40" gradientUnits="userSpaceOnUse">
<stop stop-color="white" stop-opacity="0.08"/>
<stop offset="1" stop-color="white" stop-opacity="0"/>
</linearGradient>
</defs>
</svg>
