<svg width="322" height="140" viewBox="0 0 322 140" fill="none" xmlns="http://www.w3.org/2000/svg">
<rect y="81.647" width="320.171" height="4.43157" rx="2.21578" fill="url(#paint0_linear_1025_762)"/>
<path d="M51.4258 71.4884H125.247V94.7132H51.4258V71.4884Z" fill="url(#paint1_linear_1025_762)"/>
<g filter="url(#filter0_d_1025_762)">
<circle cx="126.282" cy="83.3059" r="11.8175" fill="url(#paint2_linear_1025_762)"/>
</g>
<path d="M4.51137 111.047L6.58238 114.991L8.70479 111.047H11.9141L8.64604 116.687L12.0022 122.328H8.8076L6.58238 118.428L4.39387 122.328H1.16252L4.51137 116.687L1.28002 111.047H4.51137ZM25.0727 107.287V122.328H21.8927V110.306H21.8046L18.3603 112.465V109.645L22.0837 107.287H25.0727Z" fill="white"/>
<path d="M46.4676 111.613C46.4088 111.02 46.1567 110.56 45.7111 110.232C45.2656 109.904 44.6609 109.74 43.8972 109.74C43.3782 109.74 42.94 109.813 42.5826 109.96C42.2252 110.102 41.951 110.301 41.7601 110.555C41.574 110.81 41.481 111.099 41.481 111.422C41.4712 111.691 41.5275 111.926 41.6499 112.127C41.7772 112.328 41.951 112.501 42.1713 112.648C42.3916 112.79 42.6462 112.915 42.9351 113.023C43.224 113.126 43.5324 113.214 43.8604 113.287L45.2117 113.61C45.8678 113.757 46.47 113.953 47.0183 114.198C47.5667 114.443 48.0416 114.744 48.4431 115.101C48.8446 115.459 49.1554 115.88 49.3758 116.364C49.601 116.849 49.716 117.405 49.7209 118.031C49.716 118.952 49.481 119.75 49.0159 120.426C48.5557 121.096 47.8898 121.618 47.0183 121.99C46.1518 122.357 45.1065 122.541 43.8825 122.541C42.6683 122.541 41.6107 122.355 40.7099 121.982C39.8139 121.61 39.1138 121.06 38.6095 120.33C38.1101 119.596 37.8482 118.687 37.8237 117.605H40.9008C40.9351 118.11 41.0795 118.531 41.3341 118.869C41.5936 119.202 41.9388 119.454 42.3696 119.625C42.8054 119.792 43.2974 119.875 43.8457 119.875C44.3843 119.875 44.8519 119.796 45.2484 119.64C45.6499 119.483 45.9608 119.265 46.1811 118.986C46.4015 118.707 46.5116 118.386 46.5116 118.024C46.5116 117.686 46.4112 117.402 46.2105 117.172C46.0147 116.942 45.7258 116.746 45.3439 116.585C44.9669 116.423 44.5043 116.276 43.9559 116.144L42.3182 115.733C41.0501 115.424 40.0489 114.942 39.3145 114.286C38.5801 113.63 38.2154 112.746 38.2203 111.635C38.2154 110.724 38.4577 109.929 38.9473 109.248C39.4418 108.567 40.1199 108.036 40.9816 107.654C41.8433 107.272 42.8225 107.082 43.9192 107.082C45.0355 107.082 46.0098 107.272 46.8421 107.654C47.6793 108.036 48.3305 108.567 48.7956 109.248C49.2607 109.929 49.5006 110.717 49.5153 111.613H46.4676ZM55.0178 122.541C54.2981 122.541 53.6567 122.416 53.0937 122.166C52.5306 121.911 52.0851 121.537 51.7571 121.042C51.4339 120.543 51.2724 119.921 51.2724 119.177C51.2724 118.55 51.3874 118.024 51.6175 117.598C51.8476 117.172 52.161 116.829 52.5576 116.57C52.9541 116.31 53.4046 116.115 53.9088 115.982C54.418 115.85 54.9517 115.757 55.5098 115.703C56.1659 115.635 56.6947 115.571 57.0961 115.512C57.4976 115.449 57.7889 115.356 57.9701 115.233C58.1512 115.111 58.2418 114.93 58.2418 114.69V114.646C58.2418 114.181 58.0949 113.821 57.8012 113.566C57.5123 113.312 57.101 113.184 56.5674 113.184C56.0043 113.184 55.5563 113.309 55.2234 113.559C54.8905 113.804 54.6702 114.112 54.5625 114.484L51.6689 114.249C51.8158 113.564 52.1047 112.971 52.5355 112.472C52.9664 111.968 53.5221 111.581 54.2026 111.312C54.888 111.037 55.6812 110.9 56.5821 110.9C57.2087 110.9 57.8085 110.974 58.3813 111.121C58.9591 111.268 59.4707 111.495 59.9162 111.804C60.3667 112.112 60.7216 112.509 60.9811 112.993C61.2406 113.473 61.3703 114.049 61.3703 114.719V122.328H58.4034V120.763H58.3152C58.1341 121.116 57.8917 121.427 57.5882 121.696C57.2846 121.96 56.9199 122.169 56.4939 122.32C56.068 122.467 55.5759 122.541 55.0178 122.541ZM55.9138 120.381C56.374 120.381 56.7803 120.291 57.1329 120.11C57.4854 119.924 57.762 119.674 57.9627 119.361C58.1635 119.047 58.2638 118.692 58.2638 118.296V117.099C58.1659 117.162 58.0313 117.221 57.8599 117.275C57.6934 117.324 57.5049 117.37 57.2944 117.415C57.0839 117.454 56.8734 117.49 56.6628 117.525C56.4523 117.554 56.2614 117.581 56.09 117.605C55.7228 117.659 55.4021 117.745 55.1279 117.862C54.8538 117.98 54.6408 118.139 54.489 118.34C54.3372 118.536 54.2614 118.78 54.2614 119.074C54.2614 119.5 54.4156 119.826 54.724 120.051C55.0374 120.271 55.4339 120.381 55.9138 120.381ZM69.8636 111.047V113.397H62.9016V111.047H69.8636ZM64.4952 122.328V110.232C64.4952 109.414 64.6543 108.736 64.9726 108.198C65.2957 107.659 65.7363 107.255 66.2945 106.986C66.8526 106.717 67.4866 106.582 68.1966 106.582C68.6764 106.582 69.1146 106.619 69.5111 106.692C69.9126 106.766 70.2113 106.832 70.4071 106.891L69.849 109.241C69.7266 109.201 69.5748 109.165 69.3936 109.13C69.2174 109.096 69.0362 109.079 68.8502 109.079C68.39 109.079 68.0693 109.187 67.8881 109.402C67.707 109.613 67.6164 109.909 67.6164 110.291V122.328H64.4952ZM76.5118 122.548C75.3514 122.548 74.3527 122.313 73.5154 121.843C72.6831 121.368 72.0418 120.697 71.5913 119.831C71.1409 118.959 70.9157 117.929 70.9157 116.739C70.9157 115.579 71.1409 114.56 71.5913 113.684C72.0418 112.807 72.6758 112.124 73.4934 111.635C74.3159 111.145 75.2805 110.9 76.3869 110.9C77.1311 110.9 77.8239 111.02 78.4653 111.26C79.1116 111.495 79.6746 111.85 80.1544 112.325C80.6391 112.8 81.0161 113.397 81.2854 114.117C81.5547 114.832 81.6893 115.669 81.6893 116.629V117.488H72.1642V115.549H78.7444C78.7444 115.099 78.6464 114.7 78.4506 114.352C78.2548 114.004 77.983 113.733 77.6354 113.537C77.2927 113.336 76.8937 113.236 76.4384 113.236C75.9634 113.236 75.5424 113.346 75.1752 113.566C74.8129 113.782 74.5289 114.073 74.3233 114.44C74.1177 114.803 74.0124 115.206 74.0075 115.652V117.495C74.0075 118.053 74.1103 118.536 74.3159 118.942C74.5265 119.348 74.8227 119.662 75.2046 119.882C75.5865 120.102 76.0393 120.213 76.5632 120.213C76.9108 120.213 77.2291 120.164 77.5179 120.066C77.8068 119.968 78.054 119.821 78.2597 119.625C78.4653 119.429 78.622 119.189 78.7297 118.905L81.6232 119.096C81.4763 119.792 81.1752 120.399 80.7199 120.918C80.2695 121.432 79.6868 121.833 78.972 122.122C78.2621 122.406 77.442 122.548 76.5118 122.548Z" fill="#BFFF0B"/>
<path d="M209.555 122.328V107.287H219.513V109.909H212.735V113.493H218.852V116.115H212.735V122.328H209.555ZM221.594 122.328V111.047H224.722V122.328H221.594ZM223.165 109.593C222.7 109.593 222.301 109.439 221.968 109.131C221.64 108.817 221.476 108.443 221.476 108.007C221.476 107.576 221.64 107.206 221.968 106.898C222.301 106.585 222.7 106.428 223.165 106.428C223.63 106.428 224.027 106.585 224.355 106.898C224.688 107.206 224.854 107.576 224.854 108.007C224.854 108.443 224.688 108.817 224.355 109.131C224.027 109.439 223.63 109.593 223.165 109.593ZM232.369 122.548C231.209 122.548 230.21 122.313 229.373 121.843C228.54 121.368 227.899 120.697 227.449 119.831C226.998 118.959 226.773 117.929 226.773 116.739C226.773 115.579 226.998 114.56 227.449 113.684C227.899 112.807 228.533 112.124 229.351 111.635C230.173 111.145 231.138 110.9 232.244 110.9C232.988 110.9 233.681 111.02 234.323 111.26C234.969 111.495 235.532 111.85 236.012 112.325C236.496 112.8 236.873 113.397 237.143 114.117C237.412 114.832 237.547 115.669 237.547 116.629V117.488H228.021V115.549H234.602C234.602 115.099 234.504 114.7 234.308 114.352C234.112 114.005 233.84 113.733 233.493 113.537C233.15 113.336 232.751 113.236 232.296 113.236C231.821 113.236 231.4 113.346 231.032 113.566C230.67 113.782 230.386 114.073 230.18 114.44C229.975 114.803 229.87 115.207 229.865 115.652V117.495C229.865 118.054 229.968 118.536 230.173 118.942C230.384 119.349 230.68 119.662 231.062 119.882C231.444 120.103 231.897 120.213 232.42 120.213C232.768 120.213 233.086 120.164 233.375 120.066C233.664 119.968 233.911 119.821 234.117 119.625C234.323 119.429 234.479 119.189 234.587 118.905L237.48 119.096C237.334 119.792 237.032 120.399 236.577 120.918C236.127 121.432 235.544 121.833 234.829 122.122C234.119 122.406 233.299 122.548 232.369 122.548ZM239.588 122.328V111.047H242.621V113.016H242.739C242.944 112.315 243.29 111.787 243.774 111.429C244.259 111.067 244.817 110.886 245.449 110.886C245.605 110.886 245.774 110.896 245.955 110.915C246.137 110.935 246.296 110.962 246.433 110.996V113.772C246.286 113.728 246.083 113.689 245.823 113.654C245.564 113.62 245.326 113.603 245.111 113.603C244.651 113.603 244.239 113.703 243.877 113.904C243.52 114.1 243.236 114.374 243.025 114.727C242.819 115.079 242.717 115.486 242.717 115.946V122.328H239.588ZM252.622 122.548C251.466 122.548 250.473 122.303 249.64 121.814C248.813 121.319 248.176 120.634 247.731 119.757C247.29 118.881 247.07 117.872 247.07 116.732C247.07 115.576 247.293 114.563 247.738 113.691C248.189 112.815 248.827 112.132 249.655 111.642C250.482 111.148 251.466 110.9 252.607 110.9C253.591 110.9 254.453 111.079 255.192 111.437C255.932 111.794 256.517 112.296 256.947 112.942C257.378 113.588 257.616 114.347 257.66 115.219H254.708C254.624 114.656 254.404 114.203 254.047 113.86C253.694 113.512 253.231 113.339 252.659 113.339C252.174 113.339 251.75 113.471 251.388 113.735C251.031 113.995 250.752 114.374 250.551 114.874C250.35 115.373 250.25 115.978 250.25 116.688C250.25 117.407 250.348 118.019 250.544 118.524C250.744 119.028 251.026 119.412 251.388 119.677C251.75 119.941 252.174 120.073 252.659 120.073C253.016 120.073 253.337 120 253.621 119.853C253.91 119.706 254.147 119.493 254.333 119.214C254.524 118.93 254.649 118.59 254.708 118.193H257.66C257.611 119.055 257.376 119.814 256.955 120.47C256.539 121.121 255.963 121.63 255.229 121.997C254.495 122.364 253.626 122.548 252.622 122.548ZM264.804 122.548C263.643 122.548 262.645 122.313 261.807 121.843C260.975 121.368 260.334 120.697 259.883 119.831C259.433 118.959 259.208 117.929 259.208 116.739C259.208 115.579 259.433 114.56 259.883 113.684C260.334 112.807 260.968 112.124 261.785 111.635C262.608 111.145 263.572 110.9 264.679 110.9C265.423 110.9 266.116 111.02 266.757 111.26C267.403 111.495 267.967 111.85 268.446 112.325C268.931 112.8 269.308 113.397 269.577 114.117C269.847 114.832 269.981 115.669 269.981 116.629V117.488H260.456V115.549H267.036C267.036 115.099 266.938 114.7 266.743 114.352C266.547 114.005 266.275 113.733 265.927 113.537C265.585 113.336 265.186 113.236 264.73 113.236C264.255 113.236 263.834 113.346 263.467 113.566C263.105 113.782 262.821 114.073 262.615 114.44C262.41 114.803 262.304 115.207 262.299 115.652V117.495C262.299 118.054 262.402 118.536 262.608 118.942C262.818 119.349 263.115 119.662 263.496 119.882C263.878 120.103 264.331 120.213 264.855 120.213C265.203 120.213 265.521 120.164 265.81 120.066C266.099 119.968 266.346 119.821 266.552 119.625C266.757 119.429 266.914 119.189 267.022 118.905L269.915 119.096C269.768 119.792 269.467 120.399 269.012 120.918C268.561 121.432 267.979 121.833 267.264 122.122C266.554 122.406 265.734 122.548 264.804 122.548Z" fill="#D7314F"/>
<path d="M284.21 111.047L286.281 114.991L288.404 111.047H291.613L288.345 116.688L291.701 122.328H288.506L286.281 118.428L284.093 122.328H280.861L284.21 116.688L280.979 111.047H284.21ZM304.772 107.287V122.328H301.592V110.306H301.503L298.059 112.465V109.645L301.783 107.287H304.772ZM314.243 122.658C312.98 122.653 311.893 122.342 310.983 121.726C310.077 121.109 309.379 120.215 308.89 119.045C308.405 117.875 308.165 116.467 308.17 114.822C308.17 113.182 308.412 111.784 308.897 110.629C309.387 109.473 310.084 108.594 310.99 107.992C311.901 107.385 312.985 107.082 314.243 107.082C315.502 107.082 316.584 107.385 317.489 107.992C318.4 108.599 319.1 109.481 319.59 110.636C320.079 111.787 320.322 113.182 320.317 114.822C320.317 116.472 320.072 117.882 319.582 119.052C319.098 120.222 318.403 121.116 317.497 121.733C316.591 122.35 315.507 122.658 314.243 122.658ZM314.243 120.022C315.105 120.022 315.793 119.588 316.307 118.722C316.821 117.855 317.076 116.555 317.071 114.822C317.071 113.681 316.953 112.732 316.718 111.973C316.488 111.214 316.16 110.643 315.734 110.262C315.313 109.88 314.816 109.689 314.243 109.689C313.387 109.689 312.701 110.117 312.187 110.974C311.673 111.831 311.414 113.113 311.409 114.822C311.409 115.978 311.524 116.942 311.754 117.716C311.989 118.484 312.319 119.062 312.745 119.449C313.171 119.831 313.671 120.022 314.243 120.022Z" fill="white"/>
<path d="M51.0116 85.5891H126.078L142.252 137.845H51.0116V85.5891Z" fill="url(#paint3_linear_1025_762)"/>
<path d="M125.924 132.616V84.0753L161.116 119.267H140.486L139.273 119.571L125.924 132.616Z" fill="white"/>
<path d="M125.924 132.616V84.0753L161.116 119.267H140.486L139.273 119.571L125.924 132.616Z" fill="url(#paint4_linear_1025_762)"/>
<path d="M153.532 134.74L142.61 139.29L128.352 105.615L139.577 101.065L153.532 134.74Z" fill="white"/>
<path d="M153.532 134.74L142.61 139.29L128.352 105.615L139.577 101.065L153.532 134.74Z" fill="url(#paint5_linear_1025_762)"/>
<path d="M140.105 110.222L134.51 112.571L143.905 134.951L149.5 132.602L140.105 110.222Z" fill="black"/>
<path d="M128.957 91.3564V125.335L138.058 116.537L139.272 116.233H153.834L128.957 91.3564Z" fill="black"/>
<path d="M104.512 22.415C104.512 14.7064 104.512 10.852 105.988 7.89733C107.343 5.18534 109.542 2.98651 112.254 1.6314C115.209 0.155029 119.063 0.155029 126.772 0.155029H195.058C202.766 0.155029 206.621 0.155029 209.576 1.6314C212.288 2.98651 214.486 5.18534 215.841 7.89733C217.318 10.852 217.318 14.7064 217.318 22.415V33.4687C217.318 41.1773 217.318 45.0317 215.841 47.9864C214.486 50.6984 212.288 52.8972 209.576 54.2523C206.621 55.7287 202.767 55.7287 195.058 55.7287H126.772C119.063 55.7287 115.209 55.7287 112.254 54.2523C109.542 52.8972 107.343 50.6984 105.988 47.9864C104.512 45.0317 104.512 41.1773 104.512 33.4687V22.415Z" fill="#111316"/>
<path opacity="0.2" d="M148.17 23.8545L150.232 27.7808L152.345 23.8545H155.54L152.287 29.4698L155.628 35.0852H152.447L150.232 31.2027L148.053 35.0852H144.836L148.17 29.4698L144.953 23.8545H148.17Z" fill="white"/>
<path d="M159.413 32.453V29.9597L165.664 20.1109H167.814V23.562H166.542L162.601 29.7989V29.9158H171.484V32.453H159.413ZM166.6 35.0852V31.6926L166.659 30.5885V20.1109H169.627V35.0852H166.6Z" fill="white"/>
<defs>
<filter id="filter0_d_1025_762" x="111.51" y="71.4884" width="29.5438" height="29.5438" filterUnits="userSpaceOnUse" color-interpolation-filters="sRGB">
<feFlood flood-opacity="0" result="BackgroundImageFix"/>
<feColorMatrix in="SourceAlpha" type="matrix" values="0 0 0 0 0 0 0 0 0 0 0 0 0 0 0 0 0 0 127 0" result="hardAlpha"/>
<feOffset dy="2.95438"/>
<feGaussianBlur stdDeviation="1.47719"/>
<feComposite in2="hardAlpha" operator="out"/>
<feColorMatrix type="matrix" values="0 0 0 0 0 0 0 0 0 0 0 0 0 0 0 0 0 0 0.5 0"/>
<feBlend mode="normal" in2="BackgroundImageFix" result="effect1_dropShadow_1025_762"/>
<feBlend mode="normal" in="SourceGraphic" in2="effect1_dropShadow_1025_762" result="shape"/>
</filter>
<linearGradient id="paint0_linear_1025_762" x1="-5.33618" y1="86.0788" x2="320.171" y2="86.0788" gradientUnits="userSpaceOnUse">
<stop stop-color="#BFFF0B"/>
<stop offset="0.2" stop-color="#CCDC31"/>
<stop offset="0.4" stop-color="#D4B941"/>
<stop offset="0.6" stop-color="#D8944B"/>
<stop offset="0.8" stop-color="#D86C51"/>
<stop offset="1" stop-color="#D63855"/>
</linearGradient>
<linearGradient id="paint1_linear_1025_762" x1="135.793" y1="81.2575" x2="51.4258" y2="81.2575" gradientUnits="userSpaceOnUse">
<stop stop-color="white" stop-opacity="0.15"/>
<stop offset="1" stop-color="white" stop-opacity="0"/>
</linearGradient>
<linearGradient id="paint2_linear_1025_762" x1="126.282" y1="71.4884" x2="126.282" y2="95.1234" gradientUnits="userSpaceOnUse">
<stop stop-color="white"/>
<stop offset="1" stop-color="#E4E4E4"/>
</linearGradient>
<linearGradient id="paint3_linear_1025_762" x1="132.713" y1="107.57" x2="51.4264" y2="107.57" gradientUnits="userSpaceOnUse">
<stop stop-color="white" stop-opacity="0.15"/>
<stop offset="1" stop-color="white" stop-opacity="0"/>
</linearGradient>
<linearGradient id="paint4_linear_1025_762" x1="125.924" y1="84.0753" x2="163.856" y2="86.3203" gradientUnits="userSpaceOnUse">
<stop stop-color="#BAECFF"/>
<stop offset="1" stop-color="#B7C1FF"/>
</linearGradient>
<linearGradient id="paint5_linear_1025_762" x1="128.352" y1="101.065" x2="155.509" y2="102.525" gradientUnits="userSpaceOnUse">
<stop stop-color="#BAECFF"/>
<stop offset="1" stop-color="#B7C1FF"/>
</linearGradient>
</defs>
</svg>
