<svg width="238" height="199" viewBox="0 0 238 199" fill="none" xmlns="http://www.w3.org/2000/svg">
<g filter="url(#filter0_d_1025_1014)">
<rect x="12" y="12" width="214" height="67" rx="20" fill="#1D1F22"/>
<rect x="11.1135" y="11.1135" width="215.773" height="68.7731" rx="20.8865" stroke="url(#paint0_linear_1025_1014)" stroke-width="1.77308"/>
</g>
<path d="M61.8267 49.8325L62.0471 46.4211L59.191 48.3339L58.0098 46.2536L61.0863 44.755L58.0098 43.2565L59.191 41.1761L62.0471 43.089L61.8267 39.6776H64.198L63.9688 43.089L66.8248 41.1761L68.006 43.2565L64.9384 44.755L68.006 46.2536L66.8248 48.3339L63.9688 46.4211L64.198 49.8325H61.8267ZM75.8382 49.8325L76.0586 46.4211L73.2025 48.3339L72.0213 46.2536L75.0977 44.755L72.0213 43.2565L73.2025 41.1761L76.0586 43.089L75.8382 39.6776H78.2094L77.9802 43.089L80.8363 41.1761L82.0175 43.2565L78.9499 44.755L82.0175 46.2536L80.8363 48.3339L77.9802 46.4211L78.2094 49.8325H75.8382ZM89.8497 49.8325L90.07 46.4211L87.214 48.3339L86.0328 46.2536L89.1092 44.755L86.0328 43.2565L87.214 41.1761L90.07 43.089L89.8497 39.6776H92.2209L91.9917 43.089L94.8478 41.1761L96.029 43.2565L92.9614 44.755L96.029 46.2536L94.8478 48.3339L91.9917 46.4211L92.2209 49.8325H89.8497ZM103.861 49.8325L104.081 46.4211L101.225 48.3339L100.044 46.2536L103.121 44.755L100.044 43.2565L101.225 41.1761L104.081 43.089L103.861 39.6776H106.232L106.003 43.089L108.859 41.1761L110.04 43.2565L106.973 44.755L110.04 46.2536L108.859 48.3339L106.003 46.4211L106.232 49.8325H103.861ZM117.873 49.8325L118.093 46.4211L115.237 48.3339L114.056 46.2536L117.132 44.755L114.056 43.2565L115.237 41.1761L118.093 43.089L117.873 39.6776H120.244L120.015 43.089L122.871 41.1761L124.052 43.2565L120.984 44.755L124.052 46.2536L122.871 48.3339L120.015 46.4211L120.244 49.8325H117.873ZM131.884 49.8325L132.104 46.4211L129.248 48.3339L128.067 46.2536L131.144 44.755L128.067 43.2565L129.248 41.1761L132.104 43.089L131.884 39.6776H134.255L134.026 43.089L136.882 41.1761L138.063 43.2565L134.996 44.755L138.063 46.2536L136.882 48.3339L134.026 46.4211L134.255 49.8325H131.884ZM145.896 49.8325L146.116 46.4211L143.26 48.3339L142.079 46.2536L145.155 44.755L142.079 43.2565L143.26 41.1761L146.116 43.089L145.896 39.6776H148.267L148.038 43.089L150.894 41.1761L152.075 43.2565L149.007 44.755L152.075 46.2536L150.894 48.3339L148.038 46.4211L148.267 49.8325H145.896ZM159.907 49.8325L160.127 46.4211L157.271 48.3339L156.09 46.2536L159.167 44.755L156.09 43.2565L157.271 41.1761L160.127 43.089L159.907 39.6776H162.278L162.049 43.089L164.905 41.1761L166.086 43.2565L163.019 44.755L166.086 46.2536L164.905 48.3339L162.049 46.4211L162.278 49.8325H159.907ZM173.918 49.8325L174.139 46.4211L171.283 48.3339L170.102 46.2536L173.178 44.755L170.102 43.2565L171.283 41.1761L174.139 43.089L173.918 39.6776H176.29L176.06 43.089L178.917 41.1761L180.098 43.2565L177.03 44.755L180.098 46.2536L178.917 48.3339L176.06 46.4211L176.29 49.8325H173.918Z" fill="url(#paint1_linear_1025_1014)"/>
<g filter="url(#filter1_ddi_1025_1014)">
<rect x="12" y="99" width="216" height="67" rx="17.73" fill="#3D3F43" shape-rendering="crispEdges"/>
<path d="M108.02 125.54V135.34C108.02 136.7 107.627 137.76 106.84 138.52C106.053 139.267 105 139.64 103.68 139.64C102.347 139.64 101.267 139.253 100.44 138.48C99.6267 137.707 99.22 136.627 99.22 135.24H102.02C102.033 135.84 102.173 136.307 102.44 136.64C102.72 136.973 103.12 137.14 103.64 137.14C104.147 137.14 104.533 136.98 104.8 136.66C105.067 136.34 105.2 135.9 105.2 135.34V125.54H108.02ZM116.206 139.68C115.14 139.68 114.18 139.447 113.326 138.98C112.473 138.5 111.8 137.827 111.306 136.96C110.826 136.093 110.586 135.093 110.586 133.96C110.586 132.827 110.833 131.827 111.326 130.96C111.833 130.093 112.52 129.427 113.386 128.96C114.253 128.48 115.22 128.24 116.286 128.24C117.353 128.24 118.32 128.48 119.186 128.96C120.053 129.427 120.733 130.093 121.226 130.96C121.733 131.827 121.986 132.827 121.986 133.96C121.986 135.093 121.726 136.093 121.206 136.96C120.7 137.827 120.006 138.5 119.126 138.98C118.26 139.447 117.286 139.68 116.206 139.68ZM116.206 137.24C116.713 137.24 117.186 137.12 117.626 136.88C118.08 136.627 118.44 136.253 118.706 135.76C118.973 135.267 119.106 134.667 119.106 133.96C119.106 132.907 118.826 132.1 118.266 131.54C117.72 130.967 117.046 130.68 116.246 130.68C115.446 130.68 114.773 130.967 114.226 131.54C113.693 132.1 113.426 132.907 113.426 133.96C113.426 135.013 113.686 135.827 114.206 136.4C114.74 136.96 115.406 137.24 116.206 137.24ZM125.46 127.1C124.967 127.1 124.553 126.947 124.22 126.64C123.9 126.32 123.74 125.927 123.74 125.46C123.74 124.993 123.9 124.607 124.22 124.3C124.553 123.98 124.967 123.82 125.46 123.82C125.953 123.82 126.36 123.98 126.68 124.3C127.013 124.607 127.18 124.993 127.18 125.46C127.18 125.927 127.013 126.32 126.68 126.64C126.36 126.947 125.953 127.1 125.46 127.1ZM126.84 128.42V139.5H124.04V128.42H126.84ZM135.747 128.26C137.067 128.26 138.133 128.68 138.947 129.52C139.76 130.347 140.167 131.507 140.167 133V139.5H137.367V133.38C137.367 132.5 137.147 131.827 136.707 131.36C136.267 130.88 135.667 130.64 134.907 130.64C134.133 130.64 133.52 130.88 133.067 131.36C132.627 131.827 132.407 132.5 132.407 133.38V139.5H129.607V128.42H132.407V129.8C132.78 129.32 133.253 128.947 133.827 128.68C134.413 128.4 135.053 128.26 135.747 128.26Z" fill="white"/>
</g>
<g opacity="0.1">
<circle cx="179" cy="150" r="35" fill="white"/>
<circle cx="179" cy="150" r="35" fill="url(#paint2_linear_1025_1014)"/>
</g>
<g opacity="0.2">
<circle cx="179" cy="150" r="20" fill="white"/>
<circle cx="179" cy="150" r="20" fill="url(#paint3_linear_1025_1014)"/>
</g>
<g opacity="0.4">
<circle cx="179" cy="150" r="10" fill="white"/>
<circle cx="179" cy="150" r="10" fill="url(#paint4_linear_1025_1014)"/>
</g>
<path d="M175.924 191.616V143.075L211.116 178.267H190.486L189.273 178.571L175.924 191.616Z" fill="white"/>
<path d="M175.924 191.616V143.075L211.116 178.267H190.486L189.273 178.571L175.924 191.616Z" fill="url(#paint5_linear_1025_1014)"/>
<path d="M203.532 193.74L192.61 198.29L178.352 164.615L189.577 160.065L203.532 193.74Z" fill="white"/>
<path d="M203.532 193.74L192.61 198.29L178.352 164.615L189.577 160.065L203.532 193.74Z" fill="url(#paint6_linear_1025_1014)"/>
<path d="M190.105 169.222L184.51 171.571L193.905 193.951L199.5 191.602L190.105 169.222Z" fill="black"/>
<path d="M178.957 150.356V184.335L188.058 175.537L189.272 175.233H203.834L178.957 150.356Z" fill="black"/>
<defs>
<filter id="filter0_d_1025_1014" x="0.226929" y="0.226929" width="237.546" height="90.5461" filterUnits="userSpaceOnUse" color-interpolation-filters="sRGB">
<feFlood flood-opacity="0" result="BackgroundImageFix"/>
<feColorMatrix in="SourceAlpha" type="matrix" values="0 0 0 0 0 0 0 0 0 0 0 0 0 0 0 0 0 0 127 0" result="hardAlpha"/>
<feOffset/>
<feGaussianBlur stdDeviation="5"/>
<feComposite in2="hardAlpha" operator="out"/>
<feColorMatrix type="matrix" values="0 0 0 0 1 0 0 0 0 1 0 0 0 0 1 0 0 0 0.16 0"/>
<feBlend mode="normal" in2="BackgroundImageFix" result="effect1_dropShadow_1025_1014"/>
<feBlend mode="normal" in="SourceGraphic" in2="effect1_dropShadow_1025_1014" result="shape"/>
</filter>
<filter id="filter1_ddi_1025_1014" x="8" y="97" width="224" height="75" filterUnits="userSpaceOnUse" color-interpolation-filters="sRGB">
<feFlood flood-opacity="0" result="BackgroundImageFix"/>
<feColorMatrix in="SourceAlpha" type="matrix" values="0 0 0 0 0 0 0 0 0 0 0 0 0 0 0 0 0 0 127 0" result="hardAlpha"/>
<feOffset dy="4"/>
<feComposite in2="hardAlpha" operator="out"/>
<feColorMatrix type="matrix" values="0 0 0 0 0.138194 0 0 0 0 0.149583 0 0 0 0 0.166667 0 0 0 1 0"/>
<feBlend mode="normal" in2="BackgroundImageFix" result="effect1_dropShadow_1025_1014"/>
<feColorMatrix in="SourceAlpha" type="matrix" values="0 0 0 0 0 0 0 0 0 0 0 0 0 0 0 0 0 0 127 0" result="hardAlpha"/>
<feOffset dy="2"/>
<feGaussianBlur stdDeviation="2"/>
<feComposite in2="hardAlpha" operator="out"/>
<feColorMatrix type="matrix" values="0 0 0 0 0 0 0 0 0 0 0 0 0 0 0 0 0 0 1 0"/>
<feBlend mode="normal" in2="effect1_dropShadow_1025_1014" result="effect2_dropShadow_1025_1014"/>
<feBlend mode="normal" in="SourceGraphic" in2="effect2_dropShadow_1025_1014" result="shape"/>
<feColorMatrix in="SourceAlpha" type="matrix" values="0 0 0 0 0 0 0 0 0 0 0 0 0 0 0 0 0 0 127 0" result="hardAlpha"/>
<feOffset dy="1"/>
<feGaussianBlur stdDeviation="0.5"/>
<feComposite in2="hardAlpha" operator="arithmetic" k2="-1" k3="1"/>
<feColorMatrix type="matrix" values="0 0 0 0 1 0 0 0 0 1 0 0 0 0 1 0 0 0 0.1 0"/>
<feBlend mode="normal" in2="shape" result="effect3_innerShadow_1025_1014"/>
</filter>
<linearGradient id="paint0_linear_1025_1014" x1="12" y1="12" x2="228.735" y2="68.5108" gradientUnits="userSpaceOnUse">
<stop stop-color="#BAECFF"/>
<stop offset="1" stop-color="#B7C1FF"/>
</linearGradient>
<linearGradient id="paint1_linear_1025_1014" x1="56" y1="33.7307" x2="178.712" y2="76.1375" gradientUnits="userSpaceOnUse">
<stop stop-color="#BAECFF"/>
<stop offset="1" stop-color="#B7C1FF"/>
</linearGradient>
<linearGradient id="paint2_linear_1025_1014" x1="144" y1="115" x2="219.213" y2="121.14" gradientUnits="userSpaceOnUse">
<stop stop-color="#BAECFF"/>
<stop offset="1" stop-color="#B7C1FF"/>
</linearGradient>
<linearGradient id="paint3_linear_1025_1014" x1="159" y1="130" x2="201.979" y2="133.508" gradientUnits="userSpaceOnUse">
<stop stop-color="#BAECFF"/>
<stop offset="1" stop-color="#B7C1FF"/>
</linearGradient>
<linearGradient id="paint4_linear_1025_1014" x1="169" y1="140" x2="190.489" y2="141.754" gradientUnits="userSpaceOnUse">
<stop stop-color="#BAECFF"/>
<stop offset="1" stop-color="#B7C1FF"/>
</linearGradient>
<linearGradient id="paint5_linear_1025_1014" x1="175.924" y1="143.075" x2="213.856" y2="145.32" gradientUnits="userSpaceOnUse">
<stop stop-color="#BAECFF"/>
<stop offset="1" stop-color="#B7C1FF"/>
</linearGradient>
<linearGradient id="paint6_linear_1025_1014" x1="178.352" y1="160.065" x2="205.509" y2="161.525" gradientUnits="userSpaceOnUse">
<stop stop-color="#BAECFF"/>
<stop offset="1" stop-color="#B7C1FF"/>
</linearGradient>
</defs>
</svg>
